<mxfile host="app.diagrams.net" agent="Mozilla/5.0 (X11; Linux x86_64; rv:142.0) Gecko/20100101 Firefox/142.0" version="28.2.0">
  <diagram name="Page-1" id="XIUGO4Z-9PCaMyzDQqOC">
    <mxGraphModel dx="2313" dy="938" grid="1" gridSize="10" guides="1" tooltips="1" connect="1" arrows="1" fold="1" page="1" pageScale="1" pageWidth="827" pageHeight="1169" math="0" shadow="0">
      <root>
        <mxCell id="0" />
        <mxCell id="1" parent="0" />
        <mxCell id="yZXY3OS7uRIutaAOwyGi-1" value="ConnText Software" style="ellipse;whiteSpace=wrap;html=1;" vertex="1" parent="1">
          <mxGeometry x="340" y="40" width="120" height="80" as="geometry" />
        </mxCell>
        <mxCell id="yZXY3OS7uRIutaAOwyGi-2" value="" style="endArrow=none;html=1;rounded=0;entryX=0.5;entryY=1;entryDx=0;entryDy=0;" edge="1" parent="1" target="yZXY3OS7uRIutaAOwyGi-1">
          <mxGeometry width="50" height="50" relative="1" as="geometry">
            <mxPoint x="400" y="1320" as="sourcePoint" />
            <mxPoint x="440" y="550" as="targetPoint" />
          </mxGeometry>
        </mxCell>
        <mxCell id="yZXY3OS7uRIutaAOwyGi-3" value="User Account &amp;amp; Identity" style="rounded=0;whiteSpace=wrap;html=1;" vertex="1" parent="1">
          <mxGeometry x="760" y="200" width="90" height="40" as="geometry" />
        </mxCell>
        <mxCell id="yZXY3OS7uRIutaAOwyGi-4" value="" style="endArrow=none;html=1;rounded=0;entryX=0;entryY=0.5;entryDx=0;entryDy=0;" edge="1" parent="1" target="yZXY3OS7uRIutaAOwyGi-3">
          <mxGeometry width="50" height="50" relative="1" as="geometry">
            <mxPoint x="400" y="140" as="sourcePoint" />
            <mxPoint x="440" y="310" as="targetPoint" />
          </mxGeometry>
        </mxCell>
        <mxCell id="yZXY3OS7uRIutaAOwyGi-5" value="Server &amp;amp; Channels" style="rounded=0;whiteSpace=wrap;html=1;" vertex="1" parent="1">
          <mxGeometry x="-250" y="320" width="90" height="40" as="geometry" />
        </mxCell>
        <mxCell id="yZXY3OS7uRIutaAOwyGi-6" value="" style="endArrow=none;html=1;rounded=0;exitX=1;exitY=0.5;exitDx=0;exitDy=0;" edge="1" parent="1" source="yZXY3OS7uRIutaAOwyGi-5">
          <mxGeometry width="50" height="50" relative="1" as="geometry">
            <mxPoint x="370" y="300" as="sourcePoint" />
            <mxPoint x="400" y="220" as="targetPoint" />
          </mxGeometry>
        </mxCell>
        <mxCell id="yZXY3OS7uRIutaAOwyGi-7" value="Communication" style="rounded=0;whiteSpace=wrap;html=1;" vertex="1" parent="1">
          <mxGeometry x="720" y="510" width="90" height="40" as="geometry" />
        </mxCell>
        <mxCell id="yZXY3OS7uRIutaAOwyGi-8" value="" style="endArrow=none;html=1;rounded=0;entryX=0;entryY=0.5;entryDx=0;entryDy=0;" edge="1" parent="1" target="yZXY3OS7uRIutaAOwyGi-7">
          <mxGeometry width="50" height="50" relative="1" as="geometry">
            <mxPoint x="400" y="430" as="sourcePoint" />
            <mxPoint x="460" y="390" as="targetPoint" />
          </mxGeometry>
        </mxCell>
        <mxCell id="yZXY3OS7uRIutaAOwyGi-9" value="Permissions &amp;amp; Roles" style="rounded=0;whiteSpace=wrap;html=1;" vertex="1" parent="1">
          <mxGeometry x="-170" y="600" width="90" height="40" as="geometry" />
        </mxCell>
        <mxCell id="yZXY3OS7uRIutaAOwyGi-10" value="" style="endArrow=none;html=1;rounded=0;exitX=1;exitY=0.5;exitDx=0;exitDy=0;" edge="1" parent="1" source="yZXY3OS7uRIutaAOwyGi-9">
          <mxGeometry width="50" height="50" relative="1" as="geometry">
            <mxPoint x="230" y="580" as="sourcePoint" />
            <mxPoint x="400" y="500" as="targetPoint" />
          </mxGeometry>
        </mxCell>
        <mxCell id="yZXY3OS7uRIutaAOwyGi-11" value="Moderation &amp;amp; Content Control" style="rounded=0;whiteSpace=wrap;html=1;" vertex="1" parent="1">
          <mxGeometry x="720" y="850" width="90" height="40" as="geometry" />
        </mxCell>
        <mxCell id="yZXY3OS7uRIutaAOwyGi-12" value="" style="endArrow=none;html=1;rounded=0;exitX=0;exitY=0.5;exitDx=0;exitDy=0;" edge="1" parent="1" source="yZXY3OS7uRIutaAOwyGi-11">
          <mxGeometry width="50" height="50" relative="1" as="geometry">
            <mxPoint x="380" y="820" as="sourcePoint" />
            <mxPoint x="400" y="690" as="targetPoint" />
          </mxGeometry>
        </mxCell>
        <mxCell id="yZXY3OS7uRIutaAOwyGi-13" value="" style="endArrow=none;html=1;rounded=0;exitX=0.5;exitY=0;exitDx=0;exitDy=0;" edge="1" parent="1" source="yZXY3OS7uRIutaAOwyGi-14">
          <mxGeometry width="50" height="50" relative="1" as="geometry">
            <mxPoint x="480" y="260" as="sourcePoint" />
            <mxPoint x="480" y="158" as="targetPoint" />
          </mxGeometry>
        </mxCell>
        <mxCell id="yZXY3OS7uRIutaAOwyGi-14" value="Account Management" style="text;html=1;align=center;verticalAlign=middle;whiteSpace=wrap;rounded=0;" vertex="1" parent="1">
          <mxGeometry x="440" y="290" width="80" height="30" as="geometry" />
        </mxCell>
        <mxCell id="yZXY3OS7uRIutaAOwyGi-15" value="Create Account" style="text;html=1;align=center;verticalAlign=middle;whiteSpace=wrap;rounded=0;" vertex="1" parent="1">
          <mxGeometry x="410" y="170" width="50" height="30" as="geometry" />
        </mxCell>
        <mxCell id="yZXY3OS7uRIutaAOwyGi-16" value="" style="endArrow=none;html=1;rounded=0;exitX=1;exitY=0.5;exitDx=0;exitDy=0;" edge="1" parent="1" source="yZXY3OS7uRIutaAOwyGi-15">
          <mxGeometry width="50" height="50" relative="1" as="geometry">
            <mxPoint x="500" y="220" as="sourcePoint" />
            <mxPoint x="480" y="179" as="targetPoint" />
          </mxGeometry>
        </mxCell>
        <mxCell id="yZXY3OS7uRIutaAOwyGi-17" value="Delete Account" style="text;html=1;align=center;verticalAlign=middle;whiteSpace=wrap;rounded=0;" vertex="1" parent="1">
          <mxGeometry x="500" y="185" width="50" height="30" as="geometry" />
        </mxCell>
        <mxCell id="yZXY3OS7uRIutaAOwyGi-18" value="" style="endArrow=none;html=1;rounded=0;exitX=0;exitY=0.5;exitDx=0;exitDy=0;" edge="1" parent="1" source="yZXY3OS7uRIutaAOwyGi-17">
          <mxGeometry width="50" height="50" relative="1" as="geometry">
            <mxPoint x="500" y="220" as="sourcePoint" />
            <mxPoint x="480" y="187" as="targetPoint" />
          </mxGeometry>
        </mxCell>
        <mxCell id="yZXY3OS7uRIutaAOwyGi-19" value="Update Account Info" style="text;html=1;align=center;verticalAlign=middle;whiteSpace=wrap;rounded=0;" vertex="1" parent="1">
          <mxGeometry x="500" y="225" width="70" height="30" as="geometry" />
        </mxCell>
        <mxCell id="yZXY3OS7uRIutaAOwyGi-20" value="" style="endArrow=none;html=1;rounded=0;entryX=0;entryY=0.5;entryDx=0;entryDy=0;" edge="1" parent="1" target="yZXY3OS7uRIutaAOwyGi-19">
          <mxGeometry width="50" height="50" relative="1" as="geometry">
            <mxPoint x="480" y="234" as="sourcePoint" />
            <mxPoint x="530" y="240" as="targetPoint" />
          </mxGeometry>
        </mxCell>
        <mxCell id="yZXY3OS7uRIutaAOwyGi-21" value="View Account Info" style="text;html=1;align=center;verticalAlign=middle;whiteSpace=wrap;rounded=0;" vertex="1" parent="1">
          <mxGeometry x="410" y="210" width="50" height="40" as="geometry" />
        </mxCell>
        <mxCell id="yZXY3OS7uRIutaAOwyGi-22" value="" style="endArrow=none;html=1;rounded=0;exitX=1;exitY=0.5;exitDx=0;exitDy=0;" edge="1" parent="1" source="yZXY3OS7uRIutaAOwyGi-21">
          <mxGeometry width="50" height="50" relative="1" as="geometry">
            <mxPoint x="470" y="236" as="sourcePoint" />
            <mxPoint x="480" y="220" as="targetPoint" />
          </mxGeometry>
        </mxCell>
        <mxCell id="yZXY3OS7uRIutaAOwyGi-23" value="Create Server-Specific Names" style="text;html=1;align=center;verticalAlign=middle;whiteSpace=wrap;rounded=0;" vertex="1" parent="1">
          <mxGeometry x="490" y="263" width="90" height="25" as="geometry" />
        </mxCell>
        <mxCell id="yZXY3OS7uRIutaAOwyGi-24" value="" style="endArrow=none;html=1;rounded=0;entryX=0;entryY=0.5;entryDx=0;entryDy=0;" edge="1" parent="1" target="yZXY3OS7uRIutaAOwyGi-23">
          <mxGeometry width="50" height="50" relative="1" as="geometry">
            <mxPoint x="480" y="260" as="sourcePoint" />
            <mxPoint x="520" y="276" as="targetPoint" />
          </mxGeometry>
        </mxCell>
        <mxCell id="yZXY3OS7uRIutaAOwyGi-25" value="" style="endArrow=none;html=1;rounded=0;exitX=0.5;exitY=1;exitDx=0;exitDy=0;" edge="1" parent="1" source="yZXY3OS7uRIutaAOwyGi-26">
          <mxGeometry width="50" height="50" relative="1" as="geometry">
            <mxPoint x="590" y="50" as="sourcePoint" />
            <mxPoint x="520" y="167" as="targetPoint" />
          </mxGeometry>
        </mxCell>
        <mxCell id="yZXY3OS7uRIutaAOwyGi-26" value="Account Security" style="text;html=1;align=center;verticalAlign=middle;whiteSpace=wrap;rounded=0;" vertex="1" parent="1">
          <mxGeometry x="570" y="20" width="50" height="30" as="geometry" />
        </mxCell>
        <mxCell id="yZXY3OS7uRIutaAOwyGi-27" value="Email Verification" style="text;html=1;align=center;verticalAlign=middle;whiteSpace=wrap;rounded=0;" vertex="1" parent="1">
          <mxGeometry x="480" y="30" width="60" height="30" as="geometry" />
        </mxCell>
        <mxCell id="yZXY3OS7uRIutaAOwyGi-28" value="" style="endArrow=none;html=1;rounded=0;entryX=1;entryY=0.5;entryDx=0;entryDy=0;" edge="1" parent="1" target="yZXY3OS7uRIutaAOwyGi-27">
          <mxGeometry width="50" height="50" relative="1" as="geometry">
            <mxPoint x="586" y="64" as="sourcePoint" />
            <mxPoint x="500" y="200" as="targetPoint" />
          </mxGeometry>
        </mxCell>
        <mxCell id="yZXY3OS7uRIutaAOwyGi-29" value="Password Reset" style="text;html=1;align=center;verticalAlign=middle;whiteSpace=wrap;rounded=0;" vertex="1" parent="1">
          <mxGeometry x="600" y="70" width="50" height="30" as="geometry" />
        </mxCell>
        <mxCell id="yZXY3OS7uRIutaAOwyGi-30" value="" style="endArrow=none;html=1;rounded=0;exitX=0;exitY=0.5;exitDx=0;exitDy=0;" edge="1" parent="1" source="yZXY3OS7uRIutaAOwyGi-29">
          <mxGeometry width="50" height="50" relative="1" as="geometry">
            <mxPoint x="626" y="80" as="sourcePoint" />
            <mxPoint x="574" y="83" as="targetPoint" />
          </mxGeometry>
        </mxCell>
        <mxCell id="yZXY3OS7uRIutaAOwyGi-31" value="Set Personal Data deletion on Server Leave Globally" style="text;html=1;align=center;verticalAlign=middle;whiteSpace=wrap;rounded=0;" vertex="1" parent="1">
          <mxGeometry x="460" y="70" width="80" height="70" as="geometry" />
        </mxCell>
        <mxCell id="yZXY3OS7uRIutaAOwyGi-32" value="" style="endArrow=none;html=1;rounded=0;entryX=1;entryY=0.5;entryDx=0;entryDy=0;" edge="1" parent="1" target="yZXY3OS7uRIutaAOwyGi-31">
          <mxGeometry width="50" height="50" relative="1" as="geometry">
            <mxPoint x="562" y="101" as="sourcePoint" />
            <mxPoint x="580" y="101" as="targetPoint" />
          </mxGeometry>
        </mxCell>
        <mxCell id="yZXY3OS7uRIutaAOwyGi-33" value="Set Account Not Included in Backups Globally" style="text;html=1;align=center;verticalAlign=middle;whiteSpace=wrap;rounded=0;" vertex="1" parent="1">
          <mxGeometry x="570" y="110" width="80" height="60" as="geometry" />
        </mxCell>
        <mxCell id="yZXY3OS7uRIutaAOwyGi-34" value="" style="endArrow=none;html=1;rounded=0;entryX=0;entryY=0.5;entryDx=0;entryDy=0;" edge="1" parent="1" target="yZXY3OS7uRIutaAOwyGi-33">
          <mxGeometry width="50" height="50" relative="1" as="geometry">
            <mxPoint x="550" y="120" as="sourcePoint" />
            <mxPoint x="580" y="120" as="targetPoint" />
          </mxGeometry>
        </mxCell>
        <mxCell id="yZXY3OS7uRIutaAOwyGi-35" value="" style="endArrow=none;html=1;rounded=0;exitX=0.5;exitY=0;exitDx=0;exitDy=0;" edge="1" parent="1" source="yZXY3OS7uRIutaAOwyGi-36">
          <mxGeometry width="50" height="50" relative="1" as="geometry">
            <mxPoint x="636" y="300" as="sourcePoint" />
            <mxPoint x="636" y="192" as="targetPoint" />
          </mxGeometry>
        </mxCell>
        <mxCell id="yZXY3OS7uRIutaAOwyGi-36" value="Authentication" style="text;html=1;align=center;verticalAlign=middle;whiteSpace=wrap;rounded=0;" vertex="1" parent="1">
          <mxGeometry x="590" y="282" width="80" height="18" as="geometry" />
        </mxCell>
        <mxCell id="yZXY3OS7uRIutaAOwyGi-37" value="Login" style="text;html=1;align=center;verticalAlign=middle;whiteSpace=wrap;rounded=0;" vertex="1" parent="1">
          <mxGeometry x="650" y="205" width="30" height="20" as="geometry" />
        </mxCell>
        <mxCell id="yZXY3OS7uRIutaAOwyGi-38" value="" style="endArrow=none;html=1;rounded=0;entryX=0;entryY=0.5;entryDx=0;entryDy=0;" edge="1" parent="1" target="yZXY3OS7uRIutaAOwyGi-37">
          <mxGeometry width="50" height="50" relative="1" as="geometry">
            <mxPoint x="635" y="207" as="sourcePoint" />
            <mxPoint x="700" y="240" as="targetPoint" />
          </mxGeometry>
        </mxCell>
        <mxCell id="yZXY3OS7uRIutaAOwyGi-39" value="Logout" style="text;html=1;align=center;verticalAlign=middle;whiteSpace=wrap;rounded=0;" vertex="1" parent="1">
          <mxGeometry x="575" y="220" width="40" height="20" as="geometry" />
        </mxCell>
        <mxCell id="yZXY3OS7uRIutaAOwyGi-40" value="" style="endArrow=none;html=1;rounded=0;exitX=1;exitY=0.5;exitDx=0;exitDy=0;" edge="1" parent="1" source="yZXY3OS7uRIutaAOwyGi-39">
          <mxGeometry width="50" height="50" relative="1" as="geometry">
            <mxPoint x="687" y="235" as="sourcePoint" />
            <mxPoint x="633" y="238" as="targetPoint" />
          </mxGeometry>
        </mxCell>
        <mxCell id="yZXY3OS7uRIutaAOwyGi-41" value="Multi-Factor Authentication" style="text;html=1;align=center;verticalAlign=middle;whiteSpace=wrap;rounded=0;" vertex="1" parent="1">
          <mxGeometry x="650" y="250" width="90" height="27" as="geometry" />
        </mxCell>
        <mxCell id="yZXY3OS7uRIutaAOwyGi-42" value="" style="endArrow=none;html=1;rounded=0;entryX=0;entryY=0.5;entryDx=0;entryDy=0;" edge="1" parent="1" target="yZXY3OS7uRIutaAOwyGi-41">
          <mxGeometry width="50" height="50" relative="1" as="geometry">
            <mxPoint x="632" y="258" as="sourcePoint" />
            <mxPoint x="683" y="265" as="targetPoint" />
          </mxGeometry>
        </mxCell>
        <mxCell id="yZXY3OS7uRIutaAOwyGi-43" value="" style="endArrow=none;html=1;rounded=0;exitX=0.5;exitY=1;exitDx=0;exitDy=0;" edge="1" parent="1" source="yZXY3OS7uRIutaAOwyGi-44">
          <mxGeometry width="50" height="50" relative="1" as="geometry">
            <mxPoint x="720" y="120" as="sourcePoint" />
            <mxPoint x="704" y="208" as="targetPoint" />
          </mxGeometry>
        </mxCell>
        <mxCell id="yZXY3OS7uRIutaAOwyGi-44" value="Presence &amp;amp; Identity" style="text;html=1;align=center;verticalAlign=middle;whiteSpace=wrap;rounded=0;" vertex="1" parent="1">
          <mxGeometry x="810" y="10" width="60" height="30" as="geometry" />
        </mxCell>
        <mxCell id="yZXY3OS7uRIutaAOwyGi-45" value="View Status" style="text;html=1;align=center;verticalAlign=middle;whiteSpace=wrap;rounded=0;" vertex="1" parent="1">
          <mxGeometry x="740" y="10" width="40" height="30" as="geometry" />
        </mxCell>
        <mxCell id="yZXY3OS7uRIutaAOwyGi-46" value="" style="endArrow=none;html=1;rounded=0;exitX=1;exitY=0.5;exitDx=0;exitDy=0;" edge="1" parent="1" source="yZXY3OS7uRIutaAOwyGi-45">
          <mxGeometry width="50" height="50" relative="1" as="geometry">
            <mxPoint x="690" y="190" as="sourcePoint" />
            <mxPoint x="826" y="58" as="targetPoint" />
          </mxGeometry>
        </mxCell>
        <mxCell id="yZXY3OS7uRIutaAOwyGi-47" value="Modify Status" style="text;html=1;align=center;verticalAlign=middle;whiteSpace=wrap;rounded=0;" vertex="1" parent="1">
          <mxGeometry x="895" y="40" width="40" height="30" as="geometry" />
        </mxCell>
        <mxCell id="yZXY3OS7uRIutaAOwyGi-48" value="" style="endArrow=none;html=1;rounded=0;entryX=0;entryY=0.5;entryDx=0;entryDy=0;" edge="1" parent="1" target="yZXY3OS7uRIutaAOwyGi-47">
          <mxGeometry width="50" height="50" relative="1" as="geometry">
            <mxPoint x="836" y="45" as="sourcePoint" />
            <mxPoint x="763" y="132" as="targetPoint" />
          </mxGeometry>
        </mxCell>
        <mxCell id="yZXY3OS7uRIutaAOwyGi-49" value="Block Users" style="text;html=1;align=center;verticalAlign=middle;whiteSpace=wrap;rounded=0;" vertex="1" parent="1">
          <mxGeometry x="690" y="50" width="40" height="30" as="geometry" />
        </mxCell>
        <mxCell id="yZXY3OS7uRIutaAOwyGi-50" value="" style="endArrow=none;html=1;rounded=0;exitX=1;exitY=0.5;exitDx=0;exitDy=0;" edge="1" parent="1" source="yZXY3OS7uRIutaAOwyGi-49">
          <mxGeometry width="50" height="50" relative="1" as="geometry">
            <mxPoint x="750" y="140" as="sourcePoint" />
            <mxPoint x="802" y="87" as="targetPoint" />
          </mxGeometry>
        </mxCell>
        <mxCell id="yZXY3OS7uRIutaAOwyGi-51" value="Mute Users" style="text;html=1;align=center;verticalAlign=middle;whiteSpace=wrap;rounded=0;" vertex="1" parent="1">
          <mxGeometry x="880" y="80" width="40" height="30" as="geometry" />
        </mxCell>
        <mxCell id="yZXY3OS7uRIutaAOwyGi-52" value="" style="endArrow=none;html=1;rounded=0;entryX=0;entryY=0.5;entryDx=0;entryDy=0;" edge="1" parent="1" target="yZXY3OS7uRIutaAOwyGi-51">
          <mxGeometry width="50" height="50" relative="1" as="geometry">
            <mxPoint x="815" y="71" as="sourcePoint" />
            <mxPoint x="754" y="152" as="targetPoint" />
          </mxGeometry>
        </mxCell>
        <mxCell id="yZXY3OS7uRIutaAOwyGi-53" value="Unblock Users" style="text;html=1;align=center;verticalAlign=middle;whiteSpace=wrap;rounded=0;" vertex="1" parent="1">
          <mxGeometry x="668.5" y="85" width="50" height="30" as="geometry" />
        </mxCell>
        <mxCell id="yZXY3OS7uRIutaAOwyGi-54" value="" style="endArrow=none;html=1;rounded=0;exitX=1;exitY=0.5;exitDx=0;exitDy=0;" edge="1" parent="1" source="yZXY3OS7uRIutaAOwyGi-53">
          <mxGeometry width="50" height="50" relative="1" as="geometry">
            <mxPoint x="740" y="150" as="sourcePoint" />
            <mxPoint x="776" y="119" as="targetPoint" />
          </mxGeometry>
        </mxCell>
        <mxCell id="yZXY3OS7uRIutaAOwyGi-55" value="Unmute Users" style="text;html=1;align=center;verticalAlign=middle;whiteSpace=wrap;rounded=0;" vertex="1" parent="1">
          <mxGeometry x="827" y="110" width="50" height="30" as="geometry" />
        </mxCell>
        <mxCell id="yZXY3OS7uRIutaAOwyGi-56" value="" style="endArrow=none;html=1;rounded=0;entryX=0;entryY=0.5;entryDx=0;entryDy=0;" edge="1" parent="1" target="yZXY3OS7uRIutaAOwyGi-55">
          <mxGeometry width="50" height="50" relative="1" as="geometry">
            <mxPoint x="787" y="105" as="sourcePoint" />
            <mxPoint x="783" y="200" as="targetPoint" />
          </mxGeometry>
        </mxCell>
        <mxCell id="yZXY3OS7uRIutaAOwyGi-57" value="Set Custom Status" style="text;html=1;align=center;verticalAlign=middle;whiteSpace=wrap;rounded=0;" vertex="1" parent="1">
          <mxGeometry x="656" y="121" width="50" height="39" as="geometry" />
        </mxCell>
        <mxCell id="yZXY3OS7uRIutaAOwyGi-58" value="" style="endArrow=none;html=1;rounded=0;exitX=1;exitY=0.5;exitDx=0;exitDy=0;" edge="1" parent="1" source="yZXY3OS7uRIutaAOwyGi-57">
          <mxGeometry width="50" height="50" relative="1" as="geometry">
            <mxPoint x="730" y="190" as="sourcePoint" />
            <mxPoint x="748" y="154" as="targetPoint" />
          </mxGeometry>
        </mxCell>
        <mxCell id="yZXY3OS7uRIutaAOwyGi-59" value="Notifications" style="text;html=1;align=center;verticalAlign=middle;whiteSpace=wrap;rounded=0;" vertex="1" parent="1">
          <mxGeometry x="460" y="340" width="80" height="20" as="geometry" />
        </mxCell>
        <mxCell id="yZXY3OS7uRIutaAOwyGi-60" value="" style="endArrow=none;html=1;rounded=0;entryX=0.5;entryY=1;entryDx=0;entryDy=0;" edge="1" parent="1" target="yZXY3OS7uRIutaAOwyGi-59">
          <mxGeometry width="50" height="50" relative="1" as="geometry">
            <mxPoint x="463" y="450" as="sourcePoint" />
            <mxPoint x="636" y="390" as="targetPoint" />
          </mxGeometry>
        </mxCell>
        <mxCell id="yZXY3OS7uRIutaAOwyGi-61" value="In-App Notifications" style="text;html=1;align=center;verticalAlign=middle;whiteSpace=wrap;rounded=0;" vertex="1" parent="1">
          <mxGeometry x="510" y="370" width="70" height="30" as="geometry" />
        </mxCell>
        <mxCell id="yZXY3OS7uRIutaAOwyGi-62" value="" style="endArrow=none;html=1;rounded=0;entryX=0;entryY=0.5;entryDx=0;entryDy=0;" edge="1" parent="1" target="yZXY3OS7uRIutaAOwyGi-61">
          <mxGeometry width="50" height="50" relative="1" as="geometry">
            <mxPoint x="494" y="375" as="sourcePoint" />
            <mxPoint x="480" y="330" as="targetPoint" />
          </mxGeometry>
        </mxCell>
        <mxCell id="yZXY3OS7uRIutaAOwyGi-63" value="OS Notifications" style="text;html=1;align=center;verticalAlign=middle;whiteSpace=wrap;rounded=0;" vertex="1" parent="1">
          <mxGeometry x="400" y="380" width="70" height="30" as="geometry" />
        </mxCell>
        <mxCell id="yZXY3OS7uRIutaAOwyGi-64" value="" style="endArrow=none;html=1;rounded=0;exitX=1;exitY=0.5;exitDx=0;exitDy=0;" edge="1" parent="1" source="yZXY3OS7uRIutaAOwyGi-63">
          <mxGeometry width="50" height="50" relative="1" as="geometry">
            <mxPoint x="500" y="410" as="sourcePoint" />
            <mxPoint x="485" y="396" as="targetPoint" />
          </mxGeometry>
        </mxCell>
        <mxCell id="yZXY3OS7uRIutaAOwyGi-65" value="" style="endArrow=none;html=1;rounded=0;exitX=0.5;exitY=0;exitDx=0;exitDy=0;" edge="1" parent="1" source="yZXY3OS7uRIutaAOwyGi-66">
          <mxGeometry width="50" height="50" relative="1" as="geometry">
            <mxPoint x="500" y="560" as="sourcePoint" />
            <mxPoint x="518" y="467" as="targetPoint" />
          </mxGeometry>
        </mxCell>
        <mxCell id="yZXY3OS7uRIutaAOwyGi-66" value="Voice &amp;amp; Video" style="text;html=1;align=center;verticalAlign=middle;whiteSpace=wrap;rounded=0;" vertex="1" parent="1">
          <mxGeometry x="470" y="540" width="55" height="30" as="geometry" />
        </mxCell>
        <mxCell id="yZXY3OS7uRIutaAOwyGi-67" value="Voice Calls" style="text;html=1;align=center;verticalAlign=middle;whiteSpace=wrap;rounded=0;" vertex="1" parent="1">
          <mxGeometry x="425" y="465" width="65" height="20" as="geometry" />
        </mxCell>
        <mxCell id="yZXY3OS7uRIutaAOwyGi-68" value="" style="endArrow=none;html=1;rounded=0;entryX=1;entryY=0.5;entryDx=0;entryDy=0;" edge="1" parent="1" target="yZXY3OS7uRIutaAOwyGi-67">
          <mxGeometry width="50" height="50" relative="1" as="geometry">
            <mxPoint x="512" y="488" as="sourcePoint" />
            <mxPoint x="535" y="520" as="targetPoint" />
          </mxGeometry>
        </mxCell>
        <mxCell id="yZXY3OS7uRIutaAOwyGi-69" value="Video Streaming" style="text;html=1;align=center;verticalAlign=middle;whiteSpace=wrap;rounded=0;" vertex="1" parent="1">
          <mxGeometry x="520" y="500" width="65" height="30" as="geometry" />
        </mxCell>
        <mxCell id="yZXY3OS7uRIutaAOwyGi-70" value="" style="endArrow=none;html=1;rounded=0;entryX=0;entryY=0.5;entryDx=0;entryDy=0;" edge="1" parent="1" target="yZXY3OS7uRIutaAOwyGi-69">
          <mxGeometry width="50" height="50" relative="1" as="geometry">
            <mxPoint x="506" y="509" as="sourcePoint" />
            <mxPoint x="540" y="500" as="targetPoint" />
          </mxGeometry>
        </mxCell>
        <mxCell id="yZXY3OS7uRIutaAOwyGi-71" value="Screen Sharing" style="text;html=1;align=center;verticalAlign=middle;whiteSpace=wrap;rounded=0;" vertex="1" parent="1">
          <mxGeometry x="425" y="500" width="50" height="30" as="geometry" />
        </mxCell>
        <mxCell id="yZXY3OS7uRIutaAOwyGi-72" value="" style="endArrow=none;html=1;rounded=0;entryX=1;entryY=0.5;entryDx=0;entryDy=0;" edge="1" parent="1" target="yZXY3OS7uRIutaAOwyGi-71">
          <mxGeometry width="50" height="50" relative="1" as="geometry">
            <mxPoint x="502" y="525" as="sourcePoint" />
            <mxPoint x="490" y="500" as="targetPoint" />
          </mxGeometry>
        </mxCell>
        <mxCell id="yZXY3OS7uRIutaAOwyGi-73" value="&lt;div&gt;Messaging&lt;/div&gt;" style="text;html=1;align=center;verticalAlign=middle;whiteSpace=wrap;rounded=0;" vertex="1" parent="1">
          <mxGeometry x="660" y="330" width="70" height="20" as="geometry" />
        </mxCell>
        <mxCell id="yZXY3OS7uRIutaAOwyGi-74" value="" style="endArrow=none;html=1;rounded=0;entryX=0.5;entryY=1;entryDx=0;entryDy=0;" edge="1" parent="1" target="yZXY3OS7uRIutaAOwyGi-73">
          <mxGeometry width="50" height="50" relative="1" as="geometry">
            <mxPoint x="640" y="505" as="sourcePoint" />
            <mxPoint x="737" y="450" as="targetPoint" />
          </mxGeometry>
        </mxCell>
        <mxCell id="yZXY3OS7uRIutaAOwyGi-75" value="Private Messaging" style="text;html=1;align=center;verticalAlign=middle;whiteSpace=wrap;rounded=0;" vertex="1" parent="1">
          <mxGeometry x="591" y="390" width="60" height="30" as="geometry" />
        </mxCell>
        <mxCell id="yZXY3OS7uRIutaAOwyGi-76" value="" style="endArrow=none;html=1;rounded=0;entryX=1;entryY=0.5;entryDx=0;entryDy=0;" edge="1" parent="1" target="yZXY3OS7uRIutaAOwyGi-75">
          <mxGeometry width="50" height="50" relative="1" as="geometry">
            <mxPoint x="673" y="413" as="sourcePoint" />
            <mxPoint x="660" y="420" as="targetPoint" />
          </mxGeometry>
        </mxCell>
        <mxCell id="yZXY3OS7uRIutaAOwyGi-77" value="Group Messaging" style="text;html=1;align=center;verticalAlign=middle;whiteSpace=wrap;rounded=0;" vertex="1" parent="1">
          <mxGeometry x="690" y="430" width="60" height="30" as="geometry" />
        </mxCell>
        <mxCell id="yZXY3OS7uRIutaAOwyGi-78" value="" style="endArrow=none;html=1;rounded=0;exitX=0;exitY=0.5;exitDx=0;exitDy=0;" edge="1" parent="1" source="yZXY3OS7uRIutaAOwyGi-77">
          <mxGeometry width="50" height="50" relative="1" as="geometry">
            <mxPoint x="698" y="440" as="sourcePoint" />
            <mxPoint x="665" y="436" as="targetPoint" />
          </mxGeometry>
        </mxCell>
        <mxCell id="yZXY3OS7uRIutaAOwyGi-79" value="Message Reaction" style="text;html=1;align=center;verticalAlign=middle;whiteSpace=wrap;rounded=0;" vertex="1" parent="1">
          <mxGeometry x="575" y="440" width="60" height="30" as="geometry" />
        </mxCell>
        <mxCell id="yZXY3OS7uRIutaAOwyGi-80" value="" style="endArrow=none;html=1;rounded=0;entryX=1;entryY=0.5;entryDx=0;entryDy=0;" edge="1" parent="1" target="yZXY3OS7uRIutaAOwyGi-79">
          <mxGeometry width="50" height="50" relative="1" as="geometry">
            <mxPoint x="657" y="458" as="sourcePoint" />
            <mxPoint x="680" y="465" as="targetPoint" />
          </mxGeometry>
        </mxCell>
        <mxCell id="yZXY3OS7uRIutaAOwyGi-81" value="Message Search" style="text;html=1;align=center;verticalAlign=middle;whiteSpace=wrap;rounded=0;" vertex="1" parent="1">
          <mxGeometry x="665" y="470" width="60" height="30" as="geometry" />
        </mxCell>
        <mxCell id="yZXY3OS7uRIutaAOwyGi-82" value="" style="endArrow=none;html=1;rounded=0;entryX=0;entryY=0.5;entryDx=0;entryDy=0;" edge="1" parent="1" target="yZXY3OS7uRIutaAOwyGi-81">
          <mxGeometry width="50" height="50" relative="1" as="geometry">
            <mxPoint x="649" y="480" as="sourcePoint" />
            <mxPoint x="680" y="484" as="targetPoint" />
          </mxGeometry>
        </mxCell>
        <mxCell id="yZXY3OS7uRIutaAOwyGi-83" value="Server Participation" style="text;html=1;align=center;verticalAlign=middle;whiteSpace=wrap;rounded=0;" vertex="1" parent="1">
          <mxGeometry x="200" y="80" width="80" height="30" as="geometry" />
        </mxCell>
        <mxCell id="yZXY3OS7uRIutaAOwyGi-84" value="" style="endArrow=none;html=1;rounded=0;entryX=0.5;entryY=1;entryDx=0;entryDy=0;" edge="1" parent="1" target="yZXY3OS7uRIutaAOwyGi-83">
          <mxGeometry width="50" height="50" relative="1" as="geometry">
            <mxPoint x="295" y="243" as="sourcePoint" />
            <mxPoint x="500" y="280" as="targetPoint" />
          </mxGeometry>
        </mxCell>
        <mxCell id="yZXY3OS7uRIutaAOwyGi-85" value="Join Server" style="text;html=1;align=center;verticalAlign=middle;whiteSpace=wrap;rounded=0;" vertex="1" parent="1">
          <mxGeometry x="280" y="115" width="70" height="20" as="geometry" />
        </mxCell>
        <mxCell id="yZXY3OS7uRIutaAOwyGi-86" value="" style="endArrow=none;html=1;rounded=0;exitX=0;exitY=0.5;exitDx=0;exitDy=0;" edge="1" parent="1" source="yZXY3OS7uRIutaAOwyGi-85">
          <mxGeometry width="50" height="50" relative="1" as="geometry">
            <mxPoint x="470" y="196" as="sourcePoint" />
            <mxPoint x="246" y="125" as="targetPoint" />
          </mxGeometry>
        </mxCell>
        <mxCell id="yZXY3OS7uRIutaAOwyGi-87" value="Leave Server" style="text;html=1;align=center;verticalAlign=middle;whiteSpace=wrap;rounded=0;" vertex="1" parent="1">
          <mxGeometry x="150" y="135" width="80" height="20" as="geometry" />
        </mxCell>
        <mxCell id="yZXY3OS7uRIutaAOwyGi-88" value="" style="endArrow=none;html=1;rounded=0;entryX=1;entryY=0.5;entryDx=0;entryDy=0;" edge="1" parent="1" target="yZXY3OS7uRIutaAOwyGi-87">
          <mxGeometry width="50" height="50" relative="1" as="geometry">
            <mxPoint x="253" y="142" as="sourcePoint" />
            <mxPoint x="280" y="152" as="targetPoint" />
          </mxGeometry>
        </mxCell>
        <mxCell id="yZXY3OS7uRIutaAOwyGi-89" value="Delete Personal Data on Leave" style="text;html=1;align=center;verticalAlign=middle;whiteSpace=wrap;rounded=0;" vertex="1" parent="1">
          <mxGeometry x="300" y="145.5" width="80" height="44.5" as="geometry" />
        </mxCell>
        <mxCell id="yZXY3OS7uRIutaAOwyGi-90" value="" style="endArrow=none;html=1;rounded=0;exitX=0;exitY=0.5;exitDx=0;exitDy=0;" edge="1" parent="1" source="yZXY3OS7uRIutaAOwyGi-89">
          <mxGeometry width="50" height="50" relative="1" as="geometry">
            <mxPoint x="296" y="170" as="sourcePoint" />
            <mxPoint x="262" y="164" as="targetPoint" />
          </mxGeometry>
        </mxCell>
        <mxCell id="yZXY3OS7uRIutaAOwyGi-91" value="View Member Info" style="text;html=1;align=center;verticalAlign=middle;whiteSpace=wrap;rounded=0;" vertex="1" parent="1">
          <mxGeometry x="170" y="172.75" width="80" height="32.25" as="geometry" />
        </mxCell>
        <mxCell id="yZXY3OS7uRIutaAOwyGi-92" value="" style="endArrow=none;html=1;rounded=0;entryX=1;entryY=0.5;entryDx=0;entryDy=0;" edge="1" parent="1" target="yZXY3OS7uRIutaAOwyGi-91">
          <mxGeometry width="50" height="50" relative="1" as="geometry">
            <mxPoint x="269" y="181" as="sourcePoint" />
            <mxPoint x="260" y="191" as="targetPoint" />
          </mxGeometry>
        </mxCell>
        <mxCell id="yZXY3OS7uRIutaAOwyGi-93" value="View Server Info" style="text;html=1;align=center;verticalAlign=middle;whiteSpace=wrap;rounded=0;" vertex="1" parent="1">
          <mxGeometry x="180" y="213.87" width="80" height="32.25" as="geometry" />
        </mxCell>
        <mxCell id="yZXY3OS7uRIutaAOwyGi-94" value="" style="endArrow=none;html=1;rounded=0;entryX=1;entryY=0.5;entryDx=0;entryDy=0;" edge="1" parent="1" target="yZXY3OS7uRIutaAOwyGi-93">
          <mxGeometry width="50" height="50" relative="1" as="geometry">
            <mxPoint x="284" y="217" as="sourcePoint" />
            <mxPoint x="270" y="218" as="targetPoint" />
          </mxGeometry>
        </mxCell>
        <mxCell id="yZXY3OS7uRIutaAOwyGi-95" value="Server Management" style="text;html=1;align=center;verticalAlign=middle;whiteSpace=wrap;rounded=0;" vertex="1" parent="1">
          <mxGeometry x="248" y="387" width="80" height="30" as="geometry" />
        </mxCell>
        <mxCell id="yZXY3OS7uRIutaAOwyGi-96" value="" style="endArrow=none;html=1;rounded=0;exitX=0.5;exitY=0;exitDx=0;exitDy=0;" edge="1" parent="1" source="yZXY3OS7uRIutaAOwyGi-95">
          <mxGeometry width="50" height="50" relative="1" as="geometry">
            <mxPoint x="375" y="463" as="sourcePoint" />
            <mxPoint x="239" y="255" as="targetPoint" />
          </mxGeometry>
        </mxCell>
        <mxCell id="yZXY3OS7uRIutaAOwyGi-97" value="Create Server" style="text;html=1;align=center;verticalAlign=middle;whiteSpace=wrap;rounded=0;" vertex="1" parent="1">
          <mxGeometry x="275" y="255" width="80" height="22.25" as="geometry" />
        </mxCell>
        <mxCell id="yZXY3OS7uRIutaAOwyGi-98" value="" style="endArrow=none;html=1;rounded=0;exitX=0;exitY=0.5;exitDx=0;exitDy=0;" edge="1" parent="1" source="yZXY3OS7uRIutaAOwyGi-97">
          <mxGeometry width="50" height="50" relative="1" as="geometry">
            <mxPoint x="314" y="300" as="sourcePoint" />
            <mxPoint x="247" y="277" as="targetPoint" />
          </mxGeometry>
        </mxCell>
        <mxCell id="yZXY3OS7uRIutaAOwyGi-99" value="Search File Library" style="text;html=1;align=center;verticalAlign=middle;whiteSpace=wrap;rounded=0;" vertex="1" parent="1">
          <mxGeometry x="160" y="290" width="70" height="30" as="geometry" />
        </mxCell>
        <mxCell id="yZXY3OS7uRIutaAOwyGi-100" value="" style="endArrow=none;html=1;rounded=0;entryX=1;entryY=0.5;entryDx=0;entryDy=0;" edge="1" parent="1" target="yZXY3OS7uRIutaAOwyGi-99">
          <mxGeometry width="50" height="50" relative="1" as="geometry">
            <mxPoint x="255" y="299" as="sourcePoint" />
            <mxPoint x="290" y="312" as="targetPoint" />
          </mxGeometry>
        </mxCell>
        <mxCell id="yZXY3OS7uRIutaAOwyGi-101" value="" style="endArrow=none;html=1;rounded=0;exitX=0;exitY=0.5;exitDx=0;exitDy=0;" edge="1" parent="1" source="yZXY3OS7uRIutaAOwyGi-106">
          <mxGeometry width="50" height="50" relative="1" as="geometry">
            <mxPoint x="290" y="315" as="sourcePoint" />
            <mxPoint x="265" y="325" as="targetPoint" />
          </mxGeometry>
        </mxCell>
        <mxCell id="yZXY3OS7uRIutaAOwyGi-102" value="Remove Library Entries" style="text;html=1;align=center;verticalAlign=middle;whiteSpace=wrap;rounded=0;" vertex="1" parent="1">
          <mxGeometry x="170" y="350" width="80" height="30" as="geometry" />
        </mxCell>
        <mxCell id="yZXY3OS7uRIutaAOwyGi-103" value="" style="endArrow=none;html=1;rounded=0;entryX=1;entryY=0.5;entryDx=0;entryDy=0;" edge="1" parent="1" target="yZXY3OS7uRIutaAOwyGi-102">
          <mxGeometry width="50" height="50" relative="1" as="geometry">
            <mxPoint x="273" y="348" as="sourcePoint" />
            <mxPoint x="290" y="360" as="targetPoint" />
          </mxGeometry>
        </mxCell>
        <mxCell id="yZXY3OS7uRIutaAOwyGi-104" value="View Server Info" style="text;html=1;align=center;verticalAlign=middle;whiteSpace=wrap;rounded=0;" vertex="1" parent="1">
          <mxGeometry x="310" y="350" width="80" height="30" as="geometry" />
        </mxCell>
        <mxCell id="yZXY3OS7uRIutaAOwyGi-105" value="" style="endArrow=none;html=1;rounded=0;exitX=0;exitY=0.5;exitDx=0;exitDy=0;" edge="1" parent="1" source="yZXY3OS7uRIutaAOwyGi-104">
          <mxGeometry width="50" height="50" relative="1" as="geometry">
            <mxPoint x="307" y="370" as="sourcePoint" />
            <mxPoint x="280" y="366" as="targetPoint" />
          </mxGeometry>
        </mxCell>
        <mxCell id="yZXY3OS7uRIutaAOwyGi-106" value="Edit Server Info" style="text;html=1;align=center;verticalAlign=middle;whiteSpace=wrap;rounded=0;" vertex="1" parent="1">
          <mxGeometry x="290" y="300" width="70" height="30" as="geometry" />
        </mxCell>
        <mxCell id="yZXY3OS7uRIutaAOwyGi-107" value="Channel Management" style="text;html=1;align=center;verticalAlign=middle;whiteSpace=wrap;rounded=0;" vertex="1" parent="1">
          <mxGeometry x="-10" y="55" width="80" height="30" as="geometry" />
        </mxCell>
        <mxCell id="yZXY3OS7uRIutaAOwyGi-108" value="" style="endArrow=none;html=1;rounded=0;entryX=0.5;entryY=1;entryDx=0;entryDy=0;" edge="1" parent="1" target="yZXY3OS7uRIutaAOwyGi-107">
          <mxGeometry width="50" height="50" relative="1" as="geometry">
            <mxPoint x="98" y="285" as="sourcePoint" />
            <mxPoint x="270" y="240" as="targetPoint" />
          </mxGeometry>
        </mxCell>
        <mxCell id="yZXY3OS7uRIutaAOwyGi-109" value="Create Text Channels" style="text;html=1;align=center;verticalAlign=middle;whiteSpace=wrap;rounded=0;" vertex="1" parent="1">
          <mxGeometry x="-60" y="91" width="70" height="30" as="geometry" />
        </mxCell>
        <mxCell id="yZXY3OS7uRIutaAOwyGi-110" value="" style="endArrow=none;html=1;rounded=0;exitX=1;exitY=0.5;exitDx=0;exitDy=0;" edge="1" parent="1" source="yZXY3OS7uRIutaAOwyGi-109">
          <mxGeometry width="50" height="50" relative="1" as="geometry">
            <mxPoint x="40" y="220" as="sourcePoint" />
            <mxPoint x="35" y="99" as="targetPoint" />
          </mxGeometry>
        </mxCell>
        <mxCell id="yZXY3OS7uRIutaAOwyGi-111" value="Delete Text Channels" style="text;html=1;align=center;verticalAlign=middle;whiteSpace=wrap;rounded=0;" vertex="1" parent="1">
          <mxGeometry x="60" y="91" width="70" height="30" as="geometry" />
        </mxCell>
        <mxCell id="yZXY3OS7uRIutaAOwyGi-112" value="" style="endArrow=none;html=1;rounded=0;entryX=0;entryY=0.5;entryDx=0;entryDy=0;" edge="1" parent="1" target="yZXY3OS7uRIutaAOwyGi-111">
          <mxGeometry width="50" height="50" relative="1" as="geometry">
            <mxPoint x="41" y="117" as="sourcePoint" />
            <mxPoint x="78" y="180" as="targetPoint" />
          </mxGeometry>
        </mxCell>
        <mxCell id="yZXY3OS7uRIutaAOwyGi-113" value="Create Voice Channels" style="text;html=1;align=center;verticalAlign=middle;whiteSpace=wrap;rounded=0;" vertex="1" parent="1">
          <mxGeometry x="-55" y="130" width="80" height="30" as="geometry" />
        </mxCell>
        <mxCell id="yZXY3OS7uRIutaAOwyGi-114" value="" style="endArrow=none;html=1;rounded=0;exitX=1;exitY=0.5;exitDx=0;exitDy=0;" edge="1" parent="1" source="yZXY3OS7uRIutaAOwyGi-113">
          <mxGeometry width="50" height="50" relative="1" as="geometry">
            <mxPoint x="50" y="233" as="sourcePoint" />
            <mxPoint x="46" y="132" as="targetPoint" />
          </mxGeometry>
        </mxCell>
        <mxCell id="yZXY3OS7uRIutaAOwyGi-115" value="Delete Voice Channels" style="text;html=1;align=center;verticalAlign=middle;whiteSpace=wrap;rounded=0;" vertex="1" parent="1">
          <mxGeometry x="75" y="130" width="80" height="30" as="geometry" />
        </mxCell>
        <mxCell id="yZXY3OS7uRIutaAOwyGi-116" value="" style="endArrow=none;html=1;rounded=0;entryX=0;entryY=0.5;entryDx=0;entryDy=0;" edge="1" parent="1" target="yZXY3OS7uRIutaAOwyGi-115">
          <mxGeometry width="50" height="50" relative="1" as="geometry">
            <mxPoint x="55" y="158" as="sourcePoint" />
            <mxPoint x="90" y="230" as="targetPoint" />
          </mxGeometry>
        </mxCell>
        <mxCell id="yZXY3OS7uRIutaAOwyGi-117" value="Enable Video Streaming" style="text;html=1;align=center;verticalAlign=middle;whiteSpace=wrap;rounded=0;" vertex="1" parent="1">
          <mxGeometry x="-40" y="173.88" width="80" height="30" as="geometry" />
        </mxCell>
        <mxCell id="yZXY3OS7uRIutaAOwyGi-118" value="" style="endArrow=none;html=1;rounded=0;exitX=1;exitY=0.5;exitDx=0;exitDy=0;" edge="1" parent="1" source="yZXY3OS7uRIutaAOwyGi-117">
          <mxGeometry width="50" height="50" relative="1" as="geometry">
            <mxPoint x="40" y="225" as="sourcePoint" />
            <mxPoint x="61" y="175" as="targetPoint" />
          </mxGeometry>
        </mxCell>
        <mxCell id="yZXY3OS7uRIutaAOwyGi-119" value="Disable Video Streaming" style="text;html=1;align=center;verticalAlign=middle;whiteSpace=wrap;rounded=0;" vertex="1" parent="1">
          <mxGeometry x="90" y="172.75" width="80" height="30" as="geometry" />
        </mxCell>
        <mxCell id="yZXY3OS7uRIutaAOwyGi-120" value="" style="endArrow=none;html=1;rounded=0;entryX=0;entryY=0.5;entryDx=0;entryDy=0;" edge="1" parent="1" target="yZXY3OS7uRIutaAOwyGi-119">
          <mxGeometry width="50" height="50" relative="1" as="geometry">
            <mxPoint x="69" y="200" as="sourcePoint" />
            <mxPoint x="75" y="220" as="targetPoint" />
          </mxGeometry>
        </mxCell>
        <mxCell id="yZXY3OS7uRIutaAOwyGi-121" value="Enable Screen Sharing" style="text;html=1;align=center;verticalAlign=middle;whiteSpace=wrap;rounded=0;" vertex="1" parent="1">
          <mxGeometry x="-30" y="225" width="90" height="30" as="geometry" />
        </mxCell>
        <mxCell id="yZXY3OS7uRIutaAOwyGi-122" value="" style="endArrow=none;html=1;rounded=0;exitX=1;exitY=0.5;exitDx=0;exitDy=0;" edge="1" parent="1" source="yZXY3OS7uRIutaAOwyGi-121">
          <mxGeometry width="50" height="50" relative="1" as="geometry">
            <mxPoint x="60" y="272" as="sourcePoint" />
            <mxPoint x="80" y="231" as="targetPoint" />
          </mxGeometry>
        </mxCell>
        <mxCell id="yZXY3OS7uRIutaAOwyGi-123" value="Disable Screen Sharing" style="text;html=1;align=center;verticalAlign=middle;whiteSpace=wrap;rounded=0;" vertex="1" parent="1">
          <mxGeometry x="100" y="225" width="90" height="30" as="geometry" />
        </mxCell>
        <mxCell id="yZXY3OS7uRIutaAOwyGi-124" value="" style="endArrow=none;html=1;rounded=0;entryX=0;entryY=0.5;entryDx=0;entryDy=0;" edge="1" parent="1" target="yZXY3OS7uRIutaAOwyGi-123">
          <mxGeometry width="50" height="50" relative="1" as="geometry">
            <mxPoint x="86" y="250" as="sourcePoint" />
            <mxPoint x="91" y="240" as="targetPoint" />
          </mxGeometry>
        </mxCell>
        <mxCell id="yZXY3OS7uRIutaAOwyGi-125" value="Channel Permission" style="text;html=1;align=center;verticalAlign=middle;whiteSpace=wrap;rounded=0;" vertex="1" parent="1">
          <mxGeometry x="290" y="640" width="60" height="30" as="geometry" />
        </mxCell>
        <mxCell id="yZXY3OS7uRIutaAOwyGi-126" value="" style="endArrow=none;html=1;rounded=0;exitX=0.5;exitY=0;exitDx=0;exitDy=0;" edge="1" parent="1" source="yZXY3OS7uRIutaAOwyGi-125">
          <mxGeometry width="50" height="50" relative="1" as="geometry">
            <mxPoint x="381" y="705" as="sourcePoint" />
            <mxPoint x="267" y="533" as="targetPoint" />
          </mxGeometry>
        </mxCell>
        <mxCell id="yZXY3OS7uRIutaAOwyGi-127" value="Assign Channel-Specific Permissions" style="text;html=1;align=center;verticalAlign=middle;whiteSpace=wrap;rounded=0;" vertex="1" parent="1">
          <mxGeometry x="300" y="530" width="95" height="50" as="geometry" />
        </mxCell>
        <mxCell id="yZXY3OS7uRIutaAOwyGi-128" value="" style="endArrow=none;html=1;rounded=0;entryX=0;entryY=0.5;entryDx=0;entryDy=0;" edge="1" parent="1" target="yZXY3OS7uRIutaAOwyGi-127">
          <mxGeometry width="50" height="50" relative="1" as="geometry">
            <mxPoint x="275" y="549" as="sourcePoint" />
            <mxPoint x="320" y="580" as="targetPoint" />
          </mxGeometry>
        </mxCell>
        <mxCell id="yZXY3OS7uRIutaAOwyGi-129" value="View Channel Permissions" style="text;html=1;align=center;verticalAlign=middle;whiteSpace=wrap;rounded=0;" vertex="1" parent="1">
          <mxGeometry x="331" y="585" width="60" height="45" as="geometry" />
        </mxCell>
        <mxCell id="yZXY3OS7uRIutaAOwyGi-130" value="" style="endArrow=none;html=1;rounded=0;entryX=0;entryY=0.5;entryDx=0;entryDy=0;" edge="1" parent="1" target="yZXY3OS7uRIutaAOwyGi-129">
          <mxGeometry width="50" height="50" relative="1" as="geometry">
            <mxPoint x="304" y="608" as="sourcePoint" />
            <mxPoint x="335" y="612" as="targetPoint" />
          </mxGeometry>
        </mxCell>
        <mxCell id="yZXY3OS7uRIutaAOwyGi-131" value="Modify Channel Permissions" style="text;html=1;align=center;verticalAlign=middle;whiteSpace=wrap;rounded=0;" vertex="1" parent="1">
          <mxGeometry x="163.75" y="560" width="92.5" height="30" as="geometry" />
        </mxCell>
        <mxCell id="yZXY3OS7uRIutaAOwyGi-132" value="" style="endArrow=none;html=1;rounded=0;exitX=1;exitY=0.5;exitDx=0;exitDy=0;" edge="1" parent="1" source="yZXY3OS7uRIutaAOwyGi-131">
          <mxGeometry width="50" height="50" relative="1" as="geometry">
            <mxPoint x="320" y="570" as="sourcePoint" />
            <mxPoint x="285" y="570" as="targetPoint" />
          </mxGeometry>
        </mxCell>
        <mxCell id="yZXY3OS7uRIutaAOwyGi-133" value="Server Permissions" style="text;html=1;align=center;verticalAlign=middle;whiteSpace=wrap;rounded=0;" vertex="1" parent="1">
          <mxGeometry x="120" y="692.5" width="70" height="30" as="geometry" />
        </mxCell>
        <mxCell id="yZXY3OS7uRIutaAOwyGi-134" value="" style="endArrow=none;html=1;rounded=0;entryX=0.5;entryY=0;entryDx=0;entryDy=0;" edge="1" parent="1" target="yZXY3OS7uRIutaAOwyGi-133">
          <mxGeometry width="50" height="50" relative="1" as="geometry">
            <mxPoint x="128" y="568" as="sourcePoint" />
            <mxPoint x="310" y="600" as="targetPoint" />
          </mxGeometry>
        </mxCell>
        <mxCell id="yZXY3OS7uRIutaAOwyGi-135" value="Assign Server-Wide Permissions" style="text;html=1;align=center;verticalAlign=middle;whiteSpace=wrap;rounded=0;" vertex="1" parent="1">
          <mxGeometry y="610" width="100" height="35" as="geometry" />
        </mxCell>
        <mxCell id="yZXY3OS7uRIutaAOwyGi-136" value="" style="endArrow=none;html=1;rounded=0;entryX=1;entryY=0.5;entryDx=0;entryDy=0;" edge="1" parent="1" target="yZXY3OS7uRIutaAOwyGi-135">
          <mxGeometry width="50" height="50" relative="1" as="geometry">
            <mxPoint x="133" y="590" as="sourcePoint" />
            <mxPoint x="100" y="460" as="targetPoint" />
          </mxGeometry>
        </mxCell>
        <mxCell id="yZXY3OS7uRIutaAOwyGi-137" value="View Server Permissions" style="text;html=1;align=center;verticalAlign=middle;whiteSpace=wrap;rounded=0;" vertex="1" parent="1">
          <mxGeometry x="160" y="605" width="80" height="35" as="geometry" />
        </mxCell>
        <mxCell id="yZXY3OS7uRIutaAOwyGi-138" value="" style="endArrow=none;html=1;rounded=0;exitX=0;exitY=0.5;exitDx=0;exitDy=0;" edge="1" parent="1" source="yZXY3OS7uRIutaAOwyGi-137">
          <mxGeometry width="50" height="50" relative="1" as="geometry">
            <mxPoint x="121" y="440" as="sourcePoint" />
            <mxPoint x="139" y="619" as="targetPoint" />
          </mxGeometry>
        </mxCell>
        <mxCell id="yZXY3OS7uRIutaAOwyGi-139" value="Modify Server Permissions" style="text;html=1;align=center;verticalAlign=middle;whiteSpace=wrap;rounded=0;" vertex="1" parent="1">
          <mxGeometry x="25" y="657.5" width="80" height="35" as="geometry" />
        </mxCell>
        <mxCell id="yZXY3OS7uRIutaAOwyGi-140" value="" style="endArrow=none;html=1;rounded=0;entryX=1;entryY=0.5;entryDx=0;entryDy=0;" edge="1" parent="1" target="yZXY3OS7uRIutaAOwyGi-139">
          <mxGeometry width="50" height="50" relative="1" as="geometry">
            <mxPoint x="144" y="643" as="sourcePoint" />
            <mxPoint x="120" y="471" as="targetPoint" />
          </mxGeometry>
        </mxCell>
        <mxCell id="yZXY3OS7uRIutaAOwyGi-141" value="Invite Permissions" style="text;html=1;align=center;verticalAlign=middle;whiteSpace=wrap;rounded=0;" vertex="1" parent="1">
          <mxGeometry x="190" y="657.5" width="75" height="35" as="geometry" />
        </mxCell>
        <mxCell id="yZXY3OS7uRIutaAOwyGi-142" value="" style="endArrow=none;html=1;rounded=0;exitX=0;exitY=0.5;exitDx=0;exitDy=0;" edge="1" parent="1" source="yZXY3OS7uRIutaAOwyGi-141">
          <mxGeometry width="50" height="50" relative="1" as="geometry">
            <mxPoint x="172" y="500" as="sourcePoint" />
            <mxPoint x="147" y="656" as="targetPoint" />
          </mxGeometry>
        </mxCell>
        <mxCell id="yZXY3OS7uRIutaAOwyGi-143" value="Role Management" style="text;html=1;align=center;verticalAlign=middle;whiteSpace=wrap;rounded=0;" vertex="1" parent="1">
          <mxGeometry x="10" y="330" width="75" height="30" as="geometry" />
        </mxCell>
        <mxCell id="yZXY3OS7uRIutaAOwyGi-144" value="" style="endArrow=none;html=1;rounded=0;exitX=0.5;exitY=1;exitDx=0;exitDy=0;" edge="1" parent="1" source="yZXY3OS7uRIutaAOwyGi-143">
          <mxGeometry width="50" height="50" relative="1" as="geometry">
            <mxPoint x="210" y="660" as="sourcePoint" />
            <mxPoint x="169" y="558" as="targetPoint" />
          </mxGeometry>
        </mxCell>
        <mxCell id="yZXY3OS7uRIutaAOwyGi-145" value="Create Roles" style="text;html=1;align=center;verticalAlign=middle;whiteSpace=wrap;rounded=0;" vertex="1" parent="1">
          <mxGeometry x="-45" y="375" width="75" height="15" as="geometry" />
        </mxCell>
        <mxCell id="yZXY3OS7uRIutaAOwyGi-146" value="" style="endArrow=none;html=1;rounded=0;exitX=1;exitY=0.5;exitDx=0;exitDy=0;" edge="1" parent="1" source="yZXY3OS7uRIutaAOwyGi-145">
          <mxGeometry width="50" height="50" relative="1" as="geometry">
            <mxPoint x="153" y="580" as="sourcePoint" />
            <mxPoint x="56" y="374" as="targetPoint" />
          </mxGeometry>
        </mxCell>
        <mxCell id="yZXY3OS7uRIutaAOwyGi-147" value="Delete Roles" style="text;html=1;align=center;verticalAlign=middle;whiteSpace=wrap;rounded=0;" vertex="1" parent="1">
          <mxGeometry x="80" y="370" width="75" height="15" as="geometry" />
        </mxCell>
        <mxCell id="yZXY3OS7uRIutaAOwyGi-148" value="" style="endArrow=none;html=1;rounded=0;entryX=0;entryY=0.5;entryDx=0;entryDy=0;" edge="1" parent="1" target="yZXY3OS7uRIutaAOwyGi-147">
          <mxGeometry width="50" height="50" relative="1" as="geometry">
            <mxPoint x="65" y="389" as="sourcePoint" />
            <mxPoint x="110" y="440" as="targetPoint" />
          </mxGeometry>
        </mxCell>
        <mxCell id="yZXY3OS7uRIutaAOwyGi-149" value="Assign Roles to Users" style="text;html=1;align=center;verticalAlign=middle;whiteSpace=wrap;rounded=0;" vertex="1" parent="1">
          <mxGeometry x="-30" y="410" width="75" height="30" as="geometry" />
        </mxCell>
        <mxCell id="yZXY3OS7uRIutaAOwyGi-150" value="" style="endArrow=none;html=1;rounded=0;exitX=1;exitY=0.5;exitDx=0;exitDy=0;" edge="1" parent="1" source="yZXY3OS7uRIutaAOwyGi-149">
          <mxGeometry width="50" height="50" relative="1" as="geometry">
            <mxPoint x="90" y="470" as="sourcePoint" />
            <mxPoint x="82" y="416" as="targetPoint" />
          </mxGeometry>
        </mxCell>
        <mxCell id="yZXY3OS7uRIutaAOwyGi-151" value="Remove Roles from Users" style="text;html=1;align=center;verticalAlign=middle;whiteSpace=wrap;rounded=0;" vertex="1" parent="1">
          <mxGeometry x="120" y="410" width="80" height="30" as="geometry" />
        </mxCell>
        <mxCell id="yZXY3OS7uRIutaAOwyGi-152" value="" style="endArrow=none;html=1;rounded=0;entryX=0;entryY=0.5;entryDx=0;entryDy=0;" edge="1" parent="1" target="yZXY3OS7uRIutaAOwyGi-151">
          <mxGeometry width="50" height="50" relative="1" as="geometry">
            <mxPoint x="93" y="434" as="sourcePoint" />
            <mxPoint x="147" y="450" as="targetPoint" />
          </mxGeometry>
        </mxCell>
        <mxCell id="yZXY3OS7uRIutaAOwyGi-153" value="Assign Permissions to Roles" style="text;html=1;align=center;verticalAlign=middle;whiteSpace=wrap;rounded=0;" vertex="1" parent="1">
          <mxGeometry x="-10" y="445" width="87.5" height="40" as="geometry" />
        </mxCell>
        <mxCell id="yZXY3OS7uRIutaAOwyGi-154" value="" style="endArrow=none;html=1;rounded=0;exitX=1;exitY=0.5;exitDx=0;exitDy=0;" edge="1" parent="1" source="yZXY3OS7uRIutaAOwyGi-153">
          <mxGeometry width="50" height="50" relative="1" as="geometry">
            <mxPoint x="100" y="499" as="sourcePoint" />
            <mxPoint x="105" y="454" as="targetPoint" />
          </mxGeometry>
        </mxCell>
        <mxCell id="yZXY3OS7uRIutaAOwyGi-155" value="Manage Role Hierarchy" style="text;html=1;align=center;verticalAlign=middle;whiteSpace=wrap;rounded=0;" vertex="1" parent="1">
          <mxGeometry x="146.25" y="450" width="87.5" height="30" as="geometry" />
        </mxCell>
        <mxCell id="yZXY3OS7uRIutaAOwyGi-156" value="" style="endArrow=none;html=1;rounded=0;entryX=0;entryY=0.5;entryDx=0;entryDy=0;" edge="1" parent="1" target="yZXY3OS7uRIutaAOwyGi-155">
          <mxGeometry width="50" height="50" relative="1" as="geometry">
            <mxPoint x="114" y="469" as="sourcePoint" />
            <mxPoint x="117" y="470" as="targetPoint" />
          </mxGeometry>
        </mxCell>
        <mxCell id="yZXY3OS7uRIutaAOwyGi-157" value="View Role Permissions" style="text;html=1;align=center;verticalAlign=middle;whiteSpace=wrap;rounded=0;" vertex="1" parent="1">
          <mxGeometry x="35" y="485" width="70" height="30" as="geometry" />
        </mxCell>
        <mxCell id="yZXY3OS7uRIutaAOwyGi-158" value="" style="endArrow=none;html=1;rounded=0;exitX=1;exitY=0.5;exitDx=0;exitDy=0;" edge="1" parent="1" source="yZXY3OS7uRIutaAOwyGi-157">
          <mxGeometry width="50" height="50" relative="1" as="geometry">
            <mxPoint x="110" y="504" as="sourcePoint" />
            <mxPoint x="125" y="486" as="targetPoint" />
          </mxGeometry>
        </mxCell>
        <mxCell id="yZXY3OS7uRIutaAOwyGi-159" value="" style="endArrow=none;html=1;rounded=0;entryX=0;entryY=0.5;entryDx=0;entryDy=0;" edge="1" parent="1" target="yZXY3OS7uRIutaAOwyGi-162">
          <mxGeometry width="50" height="50" relative="1" as="geometry">
            <mxPoint x="135" y="503" as="sourcePoint" />
            <mxPoint x="165" y="505" as="targetPoint" />
          </mxGeometry>
        </mxCell>
        <mxCell id="yZXY3OS7uRIutaAOwyGi-160" value="Manage Individual Permissions" style="text;html=1;align=center;verticalAlign=middle;whiteSpace=wrap;rounded=0;" vertex="1" parent="1">
          <mxGeometry x="25" y="520" width="105" height="30" as="geometry" />
        </mxCell>
        <mxCell id="yZXY3OS7uRIutaAOwyGi-161" value="" style="endArrow=none;html=1;rounded=0;exitX=1;exitY=0.5;exitDx=0;exitDy=0;" edge="1" parent="1" source="yZXY3OS7uRIutaAOwyGi-160">
          <mxGeometry width="50" height="50" relative="1" as="geometry">
            <mxPoint x="150" y="530" as="sourcePoint" />
            <mxPoint x="148" y="524" as="targetPoint" />
          </mxGeometry>
        </mxCell>
        <mxCell id="yZXY3OS7uRIutaAOwyGi-162" value="Modify Role Permissions" style="text;html=1;align=center;verticalAlign=middle;whiteSpace=wrap;rounded=0;" vertex="1" parent="1">
          <mxGeometry x="170" y="490" width="70" height="30" as="geometry" />
        </mxCell>
        <mxCell id="yZXY3OS7uRIutaAOwyGi-163" value="" style="endArrow=none;html=1;rounded=0;entryX=0.5;entryY=1;entryDx=0;entryDy=0;" edge="1" parent="1" target="yZXY3OS7uRIutaAOwyGi-164">
          <mxGeometry width="50" height="50" relative="1" as="geometry">
            <mxPoint x="448" y="717" as="sourcePoint" />
            <mxPoint x="530" y="610" as="targetPoint" />
          </mxGeometry>
        </mxCell>
        <mxCell id="yZXY3OS7uRIutaAOwyGi-164" value="Member Moderation" style="text;html=1;align=center;verticalAlign=middle;whiteSpace=wrap;rounded=0;" vertex="1" parent="1">
          <mxGeometry x="500" y="580" width="62.5" height="30" as="geometry" />
        </mxCell>
        <mxCell id="yZXY3OS7uRIutaAOwyGi-165" value="Ban Users" style="text;html=1;align=center;verticalAlign=middle;whiteSpace=wrap;rounded=0;" vertex="1" parent="1">
          <mxGeometry x="427.5" y="616.25" width="62.5" height="12.5" as="geometry" />
        </mxCell>
        <mxCell id="yZXY3OS7uRIutaAOwyGi-166" value="" style="endArrow=none;html=1;rounded=0;entryX=1;entryY=0.5;entryDx=0;entryDy=0;" edge="1" parent="1" target="yZXY3OS7uRIutaAOwyGi-165">
          <mxGeometry width="50" height="50" relative="1" as="geometry">
            <mxPoint x="515" y="631" as="sourcePoint" />
            <mxPoint x="510" y="628.75" as="targetPoint" />
          </mxGeometry>
        </mxCell>
        <mxCell id="yZXY3OS7uRIutaAOwyGi-167" value="Kick Users" style="text;html=1;align=center;verticalAlign=middle;whiteSpace=wrap;rounded=0;" vertex="1" parent="1">
          <mxGeometry x="521.25" y="645" width="62.5" height="12.5" as="geometry" />
        </mxCell>
        <mxCell id="yZXY3OS7uRIutaAOwyGi-168" value="" style="endArrow=none;html=1;rounded=0;exitX=0;exitY=0.5;exitDx=0;exitDy=0;" edge="1" parent="1" source="yZXY3OS7uRIutaAOwyGi-167">
          <mxGeometry width="50" height="50" relative="1" as="geometry">
            <mxPoint x="535" y="648" as="sourcePoint" />
            <mxPoint x="503" y="646" as="targetPoint" />
          </mxGeometry>
        </mxCell>
        <mxCell id="yZXY3OS7uRIutaAOwyGi-169" value="Timeout Users" style="text;html=1;align=center;verticalAlign=middle;whiteSpace=wrap;rounded=0;" vertex="1" parent="1">
          <mxGeometry x="414" y="636.25" width="50" height="30" as="geometry" />
        </mxCell>
        <mxCell id="yZXY3OS7uRIutaAOwyGi-170" value="" style="endArrow=none;html=1;rounded=0;entryX=1;entryY=0.5;entryDx=0;entryDy=0;" edge="1" parent="1" target="yZXY3OS7uRIutaAOwyGi-169">
          <mxGeometry width="50" height="50" relative="1" as="geometry">
            <mxPoint x="492" y="661" as="sourcePoint" />
            <mxPoint x="490" y="650" as="targetPoint" />
          </mxGeometry>
        </mxCell>
        <mxCell id="yZXY3OS7uRIutaAOwyGi-171" value="Reinstate Users" style="text;html=1;align=center;verticalAlign=middle;whiteSpace=wrap;rounded=0;" vertex="1" parent="1">
          <mxGeometry x="512.5" y="670" width="57.5" height="30" as="geometry" />
        </mxCell>
        <mxCell id="yZXY3OS7uRIutaAOwyGi-172" value="" style="endArrow=none;html=1;rounded=0;exitX=0;exitY=0.5;exitDx=0;exitDy=0;" edge="1" parent="1" source="yZXY3OS7uRIutaAOwyGi-171">
          <mxGeometry width="50" height="50" relative="1" as="geometry">
            <mxPoint x="528" y="690" as="sourcePoint" />
            <mxPoint x="484" y="671" as="targetPoint" />
          </mxGeometry>
        </mxCell>
        <mxCell id="yZXY3OS7uRIutaAOwyGi-173" value="Invite Users" style="text;html=1;align=center;verticalAlign=middle;whiteSpace=wrap;rounded=0;" vertex="1" parent="1">
          <mxGeometry x="490" y="705" width="40" height="25" as="geometry" />
        </mxCell>
        <mxCell id="yZXY3OS7uRIutaAOwyGi-174" value="" style="endArrow=none;html=1;rounded=0;exitX=0;exitY=0.5;exitDx=0;exitDy=0;" edge="1" parent="1" source="yZXY3OS7uRIutaAOwyGi-173">
          <mxGeometry width="50" height="50" relative="1" as="geometry">
            <mxPoint x="529" y="724" as="sourcePoint" />
            <mxPoint x="463" y="697" as="targetPoint" />
          </mxGeometry>
        </mxCell>
        <mxCell id="yZXY3OS7uRIutaAOwyGi-175" value="Message Moderation" style="text;html=1;align=center;verticalAlign=middle;whiteSpace=wrap;rounded=0;" vertex="1" parent="1">
          <mxGeometry x="448.75" y="840" width="62.5" height="30" as="geometry" />
        </mxCell>
        <mxCell id="yZXY3OS7uRIutaAOwyGi-176" value="" style="endArrow=none;html=1;rounded=0;exitX=0.5;exitY=0;exitDx=0;exitDy=0;" edge="1" parent="1" source="yZXY3OS7uRIutaAOwyGi-175">
          <mxGeometry width="50" height="50" relative="1" as="geometry">
            <mxPoint x="500" y="927" as="sourcePoint" />
            <mxPoint x="517" y="756" as="targetPoint" />
          </mxGeometry>
        </mxCell>
        <mxCell id="yZXY3OS7uRIutaAOwyGi-177" value="Edit Message" style="text;html=1;align=center;verticalAlign=middle;whiteSpace=wrap;rounded=0;" vertex="1" parent="1">
          <mxGeometry x="701" y="390" width="50" height="25" as="geometry" />
        </mxCell>
        <mxCell id="yZXY3OS7uRIutaAOwyGi-178" value="" style="endArrow=none;html=1;rounded=0;exitX=0;exitY=0.5;exitDx=0;exitDy=0;" edge="1" parent="1" source="yZXY3OS7uRIutaAOwyGi-177">
          <mxGeometry width="50" height="50" relative="1" as="geometry">
            <mxPoint x="712" y="418" as="sourcePoint" />
            <mxPoint x="678" y="399" as="targetPoint" />
          </mxGeometry>
        </mxCell>
        <mxCell id="yZXY3OS7uRIutaAOwyGi-179" value="Quote Reply to Messages" style="text;html=1;align=center;verticalAlign=middle;whiteSpace=wrap;rounded=0;" vertex="1" parent="1">
          <mxGeometry x="600" y="352.5" width="60" height="25" as="geometry" />
        </mxCell>
        <mxCell id="yZXY3OS7uRIutaAOwyGi-180" value="" style="endArrow=none;html=1;rounded=0;entryX=1;entryY=0.5;entryDx=0;entryDy=0;" edge="1" parent="1" target="yZXY3OS7uRIutaAOwyGi-179">
          <mxGeometry width="50" height="50" relative="1" as="geometry">
            <mxPoint x="688" y="370" as="sourcePoint" />
            <mxPoint x="700" y="420" as="targetPoint" />
          </mxGeometry>
        </mxCell>
        <mxCell id="yZXY3OS7uRIutaAOwyGi-181" value="Delete Messages" style="text;html=1;align=center;verticalAlign=middle;whiteSpace=wrap;rounded=0;" vertex="1" parent="1">
          <mxGeometry x="430" y="750" width="55" height="30" as="geometry" />
        </mxCell>
        <mxCell id="yZXY3OS7uRIutaAOwyGi-182" value="" style="endArrow=none;html=1;rounded=0;entryX=1;entryY=0.5;entryDx=0;entryDy=0;" edge="1" parent="1" target="yZXY3OS7uRIutaAOwyGi-181">
          <mxGeometry width="50" height="50" relative="1" as="geometry">
            <mxPoint x="507" y="779" as="sourcePoint" />
            <mxPoint x="480" y="710" as="targetPoint" />
          </mxGeometry>
        </mxCell>
        <mxCell id="yZXY3OS7uRIutaAOwyGi-183" value="Pin Messages" style="text;html=1;align=center;verticalAlign=middle;whiteSpace=wrap;rounded=0;" vertex="1" parent="1">
          <mxGeometry x="512.5" y="790" width="55" height="30" as="geometry" />
        </mxCell>
        <mxCell id="yZXY3OS7uRIutaAOwyGi-184" value="" style="endArrow=none;html=1;rounded=0;exitX=0;exitY=0.5;exitDx=0;exitDy=0;" edge="1" parent="1" source="yZXY3OS7uRIutaAOwyGi-183">
          <mxGeometry width="50" height="50" relative="1" as="geometry">
            <mxPoint x="526" y="852" as="sourcePoint" />
            <mxPoint x="498" y="799" as="targetPoint" />
          </mxGeometry>
        </mxCell>
        <mxCell id="yZXY3OS7uRIutaAOwyGi-185" value="Unpin Messages" style="text;html=1;align=center;verticalAlign=middle;whiteSpace=wrap;rounded=0;" vertex="1" parent="1">
          <mxGeometry x="415" y="790" width="55" height="30" as="geometry" />
        </mxCell>
        <mxCell id="yZXY3OS7uRIutaAOwyGi-186" value="" style="endArrow=none;html=1;rounded=0;entryX=1;entryY=0.5;entryDx=0;entryDy=0;" edge="1" parent="1" target="yZXY3OS7uRIutaAOwyGi-185">
          <mxGeometry width="50" height="50" relative="1" as="geometry">
            <mxPoint x="488" y="821" as="sourcePoint" />
            <mxPoint x="510" y="850" as="targetPoint" />
          </mxGeometry>
        </mxCell>
        <mxCell id="yZXY3OS7uRIutaAOwyGi-187" value="File Management" style="text;html=1;align=center;verticalAlign=middle;whiteSpace=wrap;rounded=0;" vertex="1" parent="1">
          <mxGeometry x="660" y="660" width="75" height="32.5" as="geometry" />
        </mxCell>
        <mxCell id="yZXY3OS7uRIutaAOwyGi-188" value="" style="endArrow=none;html=1;rounded=0;entryX=0.5;entryY=1;entryDx=0;entryDy=0;" edge="1" parent="1" target="yZXY3OS7uRIutaAOwyGi-187">
          <mxGeometry width="50" height="50" relative="1" as="geometry">
            <mxPoint x="614" y="810" as="sourcePoint" />
            <mxPoint x="783" y="700" as="targetPoint" />
          </mxGeometry>
        </mxCell>
        <mxCell id="yZXY3OS7uRIutaAOwyGi-189" value="File Upload Permissions" style="text;html=1;align=center;verticalAlign=middle;whiteSpace=wrap;rounded=0;" vertex="1" parent="1">
          <mxGeometry x="-135" y="555" width="75" height="30" as="geometry" />
        </mxCell>
        <mxCell id="yZXY3OS7uRIutaAOwyGi-190" value="" style="endArrow=none;html=1;rounded=0;entryX=1;entryY=0.5;entryDx=0;entryDy=0;" edge="1" parent="1" target="yZXY3OS7uRIutaAOwyGi-189">
          <mxGeometry width="50" height="50" relative="1" as="geometry">
            <mxPoint x="-34" y="547" as="sourcePoint" />
            <mxPoint x="140" y="732" as="targetPoint" />
          </mxGeometry>
        </mxCell>
        <mxCell id="yZXY3OS7uRIutaAOwyGi-191" value="Channel-Based File Visibility" style="text;html=1;align=center;verticalAlign=middle;whiteSpace=wrap;rounded=0;" vertex="1" parent="1">
          <mxGeometry x="-170" y="500" width="90" height="30" as="geometry" />
        </mxCell>
        <mxCell id="yZXY3OS7uRIutaAOwyGi-192" value="" style="endArrow=none;html=1;rounded=0;exitX=1;exitY=0.5;exitDx=0;exitDy=0;" edge="1" parent="1" source="yZXY3OS7uRIutaAOwyGi-191">
          <mxGeometry width="50" height="50" relative="1" as="geometry">
            <mxPoint x="183" y="730" as="sourcePoint" />
            <mxPoint x="-63" y="503" as="targetPoint" />
          </mxGeometry>
        </mxCell>
        <mxCell id="yZXY3OS7uRIutaAOwyGi-193" value="File Permissions" style="text;html=1;align=center;verticalAlign=middle;whiteSpace=wrap;rounded=0;" vertex="1" parent="1">
          <mxGeometry x="-115" y="450" width="75" height="30" as="geometry" />
        </mxCell>
        <mxCell id="yZXY3OS7uRIutaAOwyGi-194" value="" style="endArrow=none;html=1;rounded=0;exitX=0.5;exitY=1;exitDx=0;exitDy=0;" edge="1" parent="1" source="yZXY3OS7uRIutaAOwyGi-193">
          <mxGeometry width="50" height="50" relative="1" as="geometry">
            <mxPoint x="-90" y="515" as="sourcePoint" />
            <mxPoint y="600" as="targetPoint" />
          </mxGeometry>
        </mxCell>
        <mxCell id="yZXY3OS7uRIutaAOwyGi-195" value="Monitor Storage Usage" style="text;html=1;align=center;verticalAlign=middle;whiteSpace=wrap;rounded=0;" vertex="1" parent="1">
          <mxGeometry x="650" y="780" width="90" height="30" as="geometry" />
        </mxCell>
        <mxCell id="yZXY3OS7uRIutaAOwyGi-196" value="" style="endArrow=none;html=1;rounded=0;entryX=0;entryY=0.5;entryDx=0;entryDy=0;" edge="1" parent="1" target="yZXY3OS7uRIutaAOwyGi-195">
          <mxGeometry width="50" height="50" relative="1" as="geometry">
            <mxPoint x="630" y="787" as="sourcePoint" />
            <mxPoint x="700" y="660" as="targetPoint" />
          </mxGeometry>
        </mxCell>
        <mxCell id="yZXY3OS7uRIutaAOwyGi-197" value="View File Library" style="text;html=1;align=center;verticalAlign=middle;whiteSpace=wrap;rounded=0;" vertex="1" parent="1">
          <mxGeometry x="710" y="700" width="100" height="25" as="geometry" />
        </mxCell>
        <mxCell id="yZXY3OS7uRIutaAOwyGi-198" value="" style="endArrow=none;html=1;rounded=0;exitX=0;exitY=0.5;exitDx=0;exitDy=0;" edge="1" parent="1" source="yZXY3OS7uRIutaAOwyGi-197">
          <mxGeometry width="50" height="50" relative="1" as="geometry">
            <mxPoint x="724" y="703" as="sourcePoint" />
            <mxPoint x="689" y="704" as="targetPoint" />
          </mxGeometry>
        </mxCell>
        <mxCell id="yZXY3OS7uRIutaAOwyGi-199" value="Add Files" style="text;html=1;align=center;verticalAlign=middle;whiteSpace=wrap;rounded=0;" vertex="1" parent="1">
          <mxGeometry x="591" y="700" width="54" height="22.5" as="geometry" />
        </mxCell>
        <mxCell id="yZXY3OS7uRIutaAOwyGi-200" value="" style="endArrow=none;html=1;rounded=0;entryX=1;entryY=0.5;entryDx=0;entryDy=0;" edge="1" parent="1" target="yZXY3OS7uRIutaAOwyGi-199">
          <mxGeometry width="50" height="50" relative="1" as="geometry">
            <mxPoint x="679" y="719" as="sourcePoint" />
            <mxPoint x="710" y="730" as="targetPoint" />
          </mxGeometry>
        </mxCell>
        <mxCell id="yZXY3OS7uRIutaAOwyGi-201" value="Remove Files" style="text;html=1;align=center;verticalAlign=middle;whiteSpace=wrap;rounded=0;" vertex="1" parent="1">
          <mxGeometry x="690" y="735" width="50" height="30" as="geometry" />
        </mxCell>
        <mxCell id="yZXY3OS7uRIutaAOwyGi-202" value="" style="endArrow=none;html=1;rounded=0;exitX=0;exitY=0.5;exitDx=0;exitDy=0;" edge="1" parent="1" source="yZXY3OS7uRIutaAOwyGi-201">
          <mxGeometry width="50" height="50" relative="1" as="geometry">
            <mxPoint x="696" y="733" as="sourcePoint" />
            <mxPoint x="666" y="736" as="targetPoint" />
          </mxGeometry>
        </mxCell>
        <mxCell id="yZXY3OS7uRIutaAOwyGi-203" value="Search for Files in Library" style="text;html=1;align=center;verticalAlign=middle;whiteSpace=wrap;rounded=0;" vertex="1" parent="1">
          <mxGeometry x="570" y="730" width="62.5" height="40" as="geometry" />
        </mxCell>
        <mxCell id="yZXY3OS7uRIutaAOwyGi-204" value="" style="endArrow=none;html=1;rounded=0;entryX=1;entryY=0.5;entryDx=0;entryDy=0;" edge="1" parent="1" target="yZXY3OS7uRIutaAOwyGi-203">
          <mxGeometry width="50" height="50" relative="1" as="geometry">
            <mxPoint x="649" y="760" as="sourcePoint" />
            <mxPoint x="640" y="740" as="targetPoint" />
          </mxGeometry>
        </mxCell>
        <mxCell id="yZXY3OS7uRIutaAOwyGi-205" value="Customisation" style="rounded=0;whiteSpace=wrap;html=1;" vertex="1" parent="1">
          <mxGeometry x="90" y="810" width="90" height="40" as="geometry" />
        </mxCell>
        <mxCell id="yZXY3OS7uRIutaAOwyGi-206" value="" style="endArrow=none;html=1;rounded=0;entryX=1;entryY=0.5;entryDx=0;entryDy=0;" edge="1" parent="1" target="yZXY3OS7uRIutaAOwyGi-205">
          <mxGeometry width="50" height="50" relative="1" as="geometry">
            <mxPoint x="400" y="777" as="sourcePoint" />
            <mxPoint x="120" y="715" as="targetPoint" />
          </mxGeometry>
        </mxCell>
        <mxCell id="yZXY3OS7uRIutaAOwyGi-207" value="Themes" style="text;html=1;align=center;verticalAlign=middle;whiteSpace=wrap;rounded=0;" vertex="1" parent="1">
          <mxGeometry x="265" y="692.5" width="55" height="20" as="geometry" />
        </mxCell>
        <mxCell id="yZXY3OS7uRIutaAOwyGi-208" value="" style="endArrow=none;html=1;rounded=0;entryX=0.5;entryY=1;entryDx=0;entryDy=0;" edge="1" parent="1" target="yZXY3OS7uRIutaAOwyGi-207">
          <mxGeometry width="50" height="50" relative="1" as="geometry">
            <mxPoint x="321" y="796" as="sourcePoint" />
            <mxPoint x="350" y="730" as="targetPoint" />
          </mxGeometry>
        </mxCell>
        <mxCell id="yZXY3OS7uRIutaAOwyGi-209" value="User Theme Settings" style="text;html=1;align=center;verticalAlign=middle;whiteSpace=wrap;rounded=0;" vertex="1" parent="1">
          <mxGeometry x="320" y="712.5" width="70" height="32.5" as="geometry" />
        </mxCell>
        <mxCell id="yZXY3OS7uRIutaAOwyGi-210" value="" style="endArrow=none;html=1;rounded=0;exitX=0;exitY=0.5;exitDx=0;exitDy=0;" edge="1" parent="1" source="yZXY3OS7uRIutaAOwyGi-209">
          <mxGeometry width="50" height="50" relative="1" as="geometry">
            <mxPoint x="283" y="769" as="sourcePoint" />
            <mxPoint x="299" y="732" as="targetPoint" />
          </mxGeometry>
        </mxCell>
        <mxCell id="yZXY3OS7uRIutaAOwyGi-211" value="Server Theme Settings" style="text;html=1;align=center;verticalAlign=middle;whiteSpace=wrap;rounded=0;" vertex="1" parent="1">
          <mxGeometry x="210" y="757.5" width="80" height="32.5" as="geometry" />
        </mxCell>
        <mxCell id="yZXY3OS7uRIutaAOwyGi-212" value="" style="endArrow=none;html=1;rounded=0;entryX=1;entryY=0.5;entryDx=0;entryDy=0;" edge="1" parent="1" target="yZXY3OS7uRIutaAOwyGi-211">
          <mxGeometry width="50" height="50" relative="1" as="geometry">
            <mxPoint x="310" y="763" as="sourcePoint" />
            <mxPoint x="330" y="763" as="targetPoint" />
          </mxGeometry>
        </mxCell>
        <mxCell id="yZXY3OS7uRIutaAOwyGi-213" value="Plugins" style="text;html=1;align=center;verticalAlign=middle;whiteSpace=wrap;rounded=0;" vertex="1" parent="1">
          <mxGeometry x="265" y="920" width="55" height="20" as="geometry" />
        </mxCell>
        <mxCell id="yZXY3OS7uRIutaAOwyGi-214" value="" style="endArrow=none;html=1;rounded=0;exitX=0.5;exitY=0;exitDx=0;exitDy=0;" edge="1" parent="1" source="yZXY3OS7uRIutaAOwyGi-213">
          <mxGeometry width="50" height="50" relative="1" as="geometry">
            <mxPoint x="369" y="983" as="sourcePoint" />
            <mxPoint x="257" y="811" as="targetPoint" />
          </mxGeometry>
        </mxCell>
        <mxCell id="yZXY3OS7uRIutaAOwyGi-215" value="Support for Client-side Custom Plugins" style="text;html=1;align=center;verticalAlign=middle;whiteSpace=wrap;rounded=0;" vertex="1" parent="1">
          <mxGeometry x="163.75" y="850" width="90" height="50" as="geometry" />
        </mxCell>
        <mxCell id="yZXY3OS7uRIutaAOwyGi-216" value="" style="endArrow=none;html=1;rounded=0;entryX=1;entryY=0.5;entryDx=0;entryDy=0;" edge="1" parent="1" target="yZXY3OS7uRIutaAOwyGi-215">
          <mxGeometry width="50" height="50" relative="1" as="geometry">
            <mxPoint x="277" y="872" as="sourcePoint" />
            <mxPoint x="320" y="880" as="targetPoint" />
          </mxGeometry>
        </mxCell>
        <mxCell id="yZXY3OS7uRIutaAOwyGi-217" value="Support for Server-side Custom Plugins" style="text;html=1;align=center;verticalAlign=middle;whiteSpace=wrap;rounded=0;" vertex="1" parent="1">
          <mxGeometry x="290" y="810" width="90" height="50" as="geometry" />
        </mxCell>
        <mxCell id="yZXY3OS7uRIutaAOwyGi-218" value="" style="endArrow=none;html=1;rounded=0;exitX=0;exitY=0.5;exitDx=0;exitDy=0;" edge="1" parent="1" source="yZXY3OS7uRIutaAOwyGi-217">
          <mxGeometry width="50" height="50" relative="1" as="geometry">
            <mxPoint x="315" y="880" as="sourcePoint" />
            <mxPoint x="265" y="835" as="targetPoint" />
          </mxGeometry>
        </mxCell>
        <mxCell id="yZXY3OS7uRIutaAOwyGi-219" value="Plugin Manager" style="text;html=1;align=center;verticalAlign=middle;whiteSpace=wrap;rounded=0;" vertex="1" parent="1">
          <mxGeometry x="300" y="880" width="90" height="30" as="geometry" />
        </mxCell>
        <mxCell id="yZXY3OS7uRIutaAOwyGi-220" value="" style="endArrow=none;html=1;rounded=0;exitX=0;exitY=0.5;exitDx=0;exitDy=0;" edge="1" parent="1" source="yZXY3OS7uRIutaAOwyGi-219">
          <mxGeometry width="50" height="50" relative="1" as="geometry">
            <mxPoint x="293" y="900" as="sourcePoint" />
            <mxPoint x="285" y="897" as="targetPoint" />
          </mxGeometry>
        </mxCell>
        <mxCell id="yZXY3OS7uRIutaAOwyGi-221" value="Customisation" style="rounded=0;whiteSpace=wrap;html=1;" vertex="1" parent="1">
          <mxGeometry x="590" y="970" width="90" height="40" as="geometry" />
        </mxCell>
        <mxCell id="yZXY3OS7uRIutaAOwyGi-222" value="" style="endArrow=none;html=1;rounded=0;exitX=0;exitY=0.5;exitDx=0;exitDy=0;" edge="1" parent="1" source="yZXY3OS7uRIutaAOwyGi-221">
          <mxGeometry width="50" height="50" relative="1" as="geometry">
            <mxPoint x="980" y="1140" as="sourcePoint" />
            <mxPoint x="400" y="910" as="targetPoint" />
          </mxGeometry>
        </mxCell>
        <mxCell id="yZXY3OS7uRIutaAOwyGi-223" value="Data Management" style="text;html=1;align=center;verticalAlign=middle;whiteSpace=wrap;rounded=0;" vertex="1" parent="1">
          <mxGeometry x="545" y="850" width="70" height="40" as="geometry" />
        </mxCell>
        <mxCell id="yZXY3OS7uRIutaAOwyGi-224" value="" style="endArrow=none;html=1;rounded=0;entryX=0.5;entryY=1;entryDx=0;entryDy=0;" edge="1" parent="1" target="yZXY3OS7uRIutaAOwyGi-223">
          <mxGeometry width="50" height="50" relative="1" as="geometry">
            <mxPoint x="539" y="969" as="sourcePoint" />
            <mxPoint x="577" y="920" as="targetPoint" />
          </mxGeometry>
        </mxCell>
        <mxCell id="yZXY3OS7uRIutaAOwyGi-225" value="Export/Download Personal Data" style="text;html=1;align=center;verticalAlign=middle;whiteSpace=wrap;rounded=0;" vertex="1" parent="1">
          <mxGeometry x="586" y="890" width="70" height="60" as="geometry" />
        </mxCell>
        <mxCell id="yZXY3OS7uRIutaAOwyGi-226" value="" style="endArrow=none;html=1;rounded=0;entryX=0;entryY=0.5;entryDx=0;entryDy=0;" edge="1" parent="1" target="yZXY3OS7uRIutaAOwyGi-225">
          <mxGeometry width="50" height="50" relative="1" as="geometry">
            <mxPoint x="567" y="915" as="sourcePoint" />
            <mxPoint x="611" y="950" as="targetPoint" />
          </mxGeometry>
        </mxCell>
        <mxCell id="yZXY3OS7uRIutaAOwyGi-227" value="Choose Profile Data Storage Location" style="text;html=1;align=center;verticalAlign=middle;whiteSpace=wrap;rounded=0;" vertex="1" parent="1">
          <mxGeometry x="460" y="890" width="85" height="60" as="geometry" />
        </mxCell>
        <mxCell id="yZXY3OS7uRIutaAOwyGi-228" value="" style="endArrow=none;html=1;rounded=0;exitX=1;exitY=0.5;exitDx=0;exitDy=0;" edge="1" parent="1" source="yZXY3OS7uRIutaAOwyGi-227">
          <mxGeometry width="50" height="50" relative="1" as="geometry">
            <mxPoint x="580" y="930" as="sourcePoint" />
            <mxPoint x="562" y="925" as="targetPoint" />
          </mxGeometry>
        </mxCell>
        <mxCell id="yZXY3OS7uRIutaAOwyGi-229" value="System Administration" style="rounded=0;whiteSpace=wrap;html=1;" vertex="1" parent="1">
          <mxGeometry x="-170" y="1240" width="90" height="40" as="geometry" />
        </mxCell>
        <mxCell id="yZXY3OS7uRIutaAOwyGi-230" value="" style="endArrow=none;html=1;rounded=0;entryX=1;entryY=0.5;entryDx=0;entryDy=0;" edge="1" parent="1" target="yZXY3OS7uRIutaAOwyGi-229">
          <mxGeometry width="50" height="50" relative="1" as="geometry">
            <mxPoint x="400" y="1050" as="sourcePoint" />
            <mxPoint x="220" y="1143" as="targetPoint" />
          </mxGeometry>
        </mxCell>
        <mxCell id="yZXY3OS7uRIutaAOwyGi-231" value="Software Maintenance" style="text;html=1;align=center;verticalAlign=middle;whiteSpace=wrap;rounded=0;" vertex="1" parent="1">
          <mxGeometry x="262" y="1187" width="85" height="30" as="geometry" />
        </mxCell>
        <mxCell id="yZXY3OS7uRIutaAOwyGi-232" value="" style="endArrow=none;html=1;rounded=0;exitX=0.5;exitY=0;exitDx=0;exitDy=0;" edge="1" parent="1" source="yZXY3OS7uRIutaAOwyGi-231">
          <mxGeometry width="50" height="50" relative="1" as="geometry">
            <mxPoint x="377.5" y="1205" as="sourcePoint" />
            <mxPoint x="279" y="1103" as="targetPoint" />
          </mxGeometry>
        </mxCell>
        <mxCell id="yZXY3OS7uRIutaAOwyGi-233" value="Update Software" style="text;html=1;align=center;verticalAlign=middle;whiteSpace=wrap;rounded=0;" vertex="1" parent="1">
          <mxGeometry x="303" y="1110" width="62.5" height="30" as="geometry" />
        </mxCell>
        <mxCell id="yZXY3OS7uRIutaAOwyGi-234" value="" style="endArrow=none;html=1;rounded=0;entryX=0;entryY=0.5;entryDx=0;entryDy=0;" edge="1" parent="1" target="yZXY3OS7uRIutaAOwyGi-233">
          <mxGeometry width="50" height="50" relative="1" as="geometry">
            <mxPoint x="289" y="1137" as="sourcePoint" />
            <mxPoint x="385" y="1090" as="targetPoint" />
          </mxGeometry>
        </mxCell>
        <mxCell id="yZXY3OS7uRIutaAOwyGi-235" value="System Health Monitoring" style="text;html=1;align=center;verticalAlign=middle;whiteSpace=wrap;rounded=0;" vertex="1" parent="1">
          <mxGeometry x="200" y="1150" width="80" height="30" as="geometry" />
        </mxCell>
        <mxCell id="yZXY3OS7uRIutaAOwyGi-236" value="" style="endArrow=none;html=1;rounded=0;exitX=1;exitY=0.5;exitDx=0;exitDy=0;" edge="1" parent="1" source="yZXY3OS7uRIutaAOwyGi-235">
          <mxGeometry width="50" height="50" relative="1" as="geometry">
            <mxPoint x="300" y="1185" as="sourcePoint" />
            <mxPoint x="297" y="1162" as="targetPoint" />
          </mxGeometry>
        </mxCell>
        <mxCell id="yZXY3OS7uRIutaAOwyGi-237" value="Backup &amp;amp; Restore" style="text;html=1;align=center;verticalAlign=middle;whiteSpace=wrap;rounded=0;" vertex="1" parent="1">
          <mxGeometry x="98.75" y="996" width="65" height="30" as="geometry" />
        </mxCell>
        <mxCell id="yZXY3OS7uRIutaAOwyGi-238" value="" style="endArrow=none;html=1;rounded=0;entryX=0.5;entryY=1;entryDx=0;entryDy=0;" edge="1" parent="1" target="yZXY3OS7uRIutaAOwyGi-237">
          <mxGeometry width="50" height="50" relative="1" as="geometry">
            <mxPoint x="185" y="1144" as="sourcePoint" />
            <mxPoint x="370" y="1090" as="targetPoint" />
          </mxGeometry>
        </mxCell>
        <mxCell id="yZXY3OS7uRIutaAOwyGi-239" value="Configure Backup Settings" style="text;html=1;align=center;verticalAlign=middle;whiteSpace=wrap;rounded=0;" vertex="1" parent="1">
          <mxGeometry x="180" y="1056" width="90" height="30" as="geometry" />
        </mxCell>
        <mxCell id="yZXY3OS7uRIutaAOwyGi-240" value="" style="endArrow=none;html=1;rounded=0;entryX=0;entryY=0.5;entryDx=0;entryDy=0;" edge="1" parent="1" target="yZXY3OS7uRIutaAOwyGi-239">
          <mxGeometry width="50" height="50" relative="1" as="geometry">
            <mxPoint x="157" y="1082" as="sourcePoint" />
            <mxPoint x="314" y="1140" as="targetPoint" />
          </mxGeometry>
        </mxCell>
        <mxCell id="yZXY3OS7uRIutaAOwyGi-241" value="Configure Restore Settings" style="text;html=1;align=center;verticalAlign=middle;whiteSpace=wrap;rounded=0;" vertex="1" parent="1">
          <mxGeometry x="45" y="1110" width="100" height="30" as="geometry" />
        </mxCell>
        <mxCell id="yZXY3OS7uRIutaAOwyGi-242" value="" style="endArrow=none;html=1;rounded=0;exitX=1;exitY=0.5;exitDx=0;exitDy=0;" edge="1" parent="1" source="yZXY3OS7uRIutaAOwyGi-241">
          <mxGeometry width="50" height="50" relative="1" as="geometry">
            <mxPoint x="150" y="1151" as="sourcePoint" />
            <mxPoint x="169" y="1109" as="targetPoint" />
          </mxGeometry>
        </mxCell>
        <mxCell id="yZXY3OS7uRIutaAOwyGi-243" value="Create Backup" style="text;html=1;align=center;verticalAlign=middle;whiteSpace=wrap;rounded=0;" vertex="1" parent="1">
          <mxGeometry x="32.5" y="1066" width="90" height="20" as="geometry" />
        </mxCell>
        <mxCell id="yZXY3OS7uRIutaAOwyGi-244" value="" style="endArrow=none;html=1;rounded=0;exitX=1;exitY=0.5;exitDx=0;exitDy=0;" edge="1" parent="1" source="yZXY3OS7uRIutaAOwyGi-243">
          <mxGeometry width="50" height="50" relative="1" as="geometry">
            <mxPoint x="160" y="1136" as="sourcePoint" />
            <mxPoint x="147" y="1060" as="targetPoint" />
          </mxGeometry>
        </mxCell>
        <mxCell id="yZXY3OS7uRIutaAOwyGi-245" value="Restore Backup" style="text;html=1;align=center;verticalAlign=middle;whiteSpace=wrap;rounded=0;" vertex="1" parent="1">
          <mxGeometry x="155" y="1026" width="90" height="20" as="geometry" />
        </mxCell>
        <mxCell id="yZXY3OS7uRIutaAOwyGi-246" value="" style="endArrow=none;html=1;rounded=0;entryX=0;entryY=0.5;entryDx=0;entryDy=0;" edge="1" parent="1" target="yZXY3OS7uRIutaAOwyGi-245">
          <mxGeometry width="50" height="50" relative="1" as="geometry">
            <mxPoint x="138" y="1040" as="sourcePoint" />
            <mxPoint x="164" y="1060" as="targetPoint" />
          </mxGeometry>
        </mxCell>
        <mxCell id="yZXY3OS7uRIutaAOwyGi-247" value="System Security" style="text;html=1;align=center;verticalAlign=middle;whiteSpace=wrap;rounded=0;" vertex="1" parent="1">
          <mxGeometry x="90" y="1280" width="60" height="30" as="geometry" />
        </mxCell>
        <mxCell id="yZXY3OS7uRIutaAOwyGi-248" value="" style="endArrow=none;html=1;rounded=0;exitX=0.5;exitY=0;exitDx=0;exitDy=0;" edge="1" parent="1" source="yZXY3OS7uRIutaAOwyGi-247">
          <mxGeometry width="50" height="50" relative="1" as="geometry">
            <mxPoint x="270" y="1370" as="sourcePoint" />
            <mxPoint x="80" y="1190" as="targetPoint" />
          </mxGeometry>
        </mxCell>
        <mxCell id="yZXY3OS7uRIutaAOwyGi-249" value="Log Monitoring" style="text;html=1;align=center;verticalAlign=middle;whiteSpace=wrap;rounded=0;" vertex="1" parent="1">
          <mxGeometry x="102.5" y="1190" width="65" height="30" as="geometry" />
        </mxCell>
        <mxCell id="yZXY3OS7uRIutaAOwyGi-250" value="" style="endArrow=none;html=1;rounded=0;entryX=0;entryY=0.5;entryDx=0;entryDy=0;" edge="1" parent="1" target="yZXY3OS7uRIutaAOwyGi-249">
          <mxGeometry width="50" height="50" relative="1" as="geometry">
            <mxPoint x="92" y="1217" as="sourcePoint" />
            <mxPoint x="170" y="1210" as="targetPoint" />
          </mxGeometry>
        </mxCell>
        <mxCell id="yZXY3OS7uRIutaAOwyGi-251" value="Audit Logs" style="text;html=1;align=center;verticalAlign=middle;whiteSpace=wrap;rounded=0;" vertex="1" parent="1">
          <mxGeometry x="25" y="1250" width="65" height="20" as="geometry" />
        </mxCell>
        <mxCell id="yZXY3OS7uRIutaAOwyGi-252" value="" style="endArrow=none;html=1;rounded=0;exitX=1;exitY=0.5;exitDx=0;exitDy=0;" edge="1" parent="1" source="yZXY3OS7uRIutaAOwyGi-251">
          <mxGeometry width="50" height="50" relative="1" as="geometry">
            <mxPoint x="120" y="1260" as="sourcePoint" />
            <mxPoint x="105" y="1246" as="targetPoint" />
          </mxGeometry>
        </mxCell>
        <mxCell id="yZXY3OS7uRIutaAOwyGi-253" value="System Monitoring" style="text;html=1;align=center;verticalAlign=middle;whiteSpace=wrap;rounded=0;" vertex="1" parent="1">
          <mxGeometry x="-80" y="1120" width="60" height="30" as="geometry" />
        </mxCell>
        <mxCell id="yZXY3OS7uRIutaAOwyGi-254" value="" style="endArrow=none;html=1;rounded=0;entryX=0.5;entryY=1;entryDx=0;entryDy=0;" edge="1" parent="1" target="yZXY3OS7uRIutaAOwyGi-253">
          <mxGeometry width="50" height="50" relative="1" as="geometry">
            <mxPoint x="-1" y="1225" as="sourcePoint" />
            <mxPoint x="130" y="1250" as="targetPoint" />
          </mxGeometry>
        </mxCell>
        <mxCell id="yZXY3OS7uRIutaAOwyGi-255" value="Health Resources" style="text;html=1;align=center;verticalAlign=middle;whiteSpace=wrap;rounded=0;" vertex="1" parent="1">
          <mxGeometry x="-115" y="1180" width="60" height="30" as="geometry" />
        </mxCell>
        <mxCell id="yZXY3OS7uRIutaAOwyGi-256" value="" style="endArrow=none;html=1;rounded=0;exitX=1;exitY=0.5;exitDx=0;exitDy=0;" edge="1" parent="1" source="yZXY3OS7uRIutaAOwyGi-255">
          <mxGeometry width="50" height="50" relative="1" as="geometry">
            <mxPoint x="90" y="1232" as="sourcePoint" />
            <mxPoint x="-37" y="1170" as="targetPoint" />
          </mxGeometry>
        </mxCell>
        <mxCell id="yZXY3OS7uRIutaAOwyGi-257" value="Resource Usage" style="text;html=1;align=center;verticalAlign=middle;whiteSpace=wrap;rounded=0;" vertex="1" parent="1">
          <mxGeometry x="-10" y="1169" width="60" height="30" as="geometry" />
        </mxCell>
        <mxCell id="yZXY3OS7uRIutaAOwyGi-258" value="" style="endArrow=none;html=1;rounded=0;entryX=0;entryY=0.5;entryDx=0;entryDy=0;" edge="1" parent="1" target="yZXY3OS7uRIutaAOwyGi-257">
          <mxGeometry width="50" height="50" relative="1" as="geometry">
            <mxPoint x="-21" y="1195" as="sourcePoint" />
            <mxPoint x="-20" y="1170" as="targetPoint" />
          </mxGeometry>
        </mxCell>
        <mxCell id="yZXY3OS7uRIutaAOwyGi-259" value="Platform Features" style="rounded=0;whiteSpace=wrap;html=1;" vertex="1" parent="1">
          <mxGeometry x="715" y="1230" width="90" height="40" as="geometry" />
        </mxCell>
        <mxCell id="yZXY3OS7uRIutaAOwyGi-260" value="" style="endArrow=none;html=1;rounded=0;exitX=0;exitY=0.5;exitDx=0;exitDy=0;" edge="1" parent="1" source="yZXY3OS7uRIutaAOwyGi-259">
          <mxGeometry width="50" height="50" relative="1" as="geometry">
            <mxPoint x="1060" y="1480" as="sourcePoint" />
            <mxPoint x="400" y="1120" as="targetPoint" />
          </mxGeometry>
        </mxCell>
        <mxCell id="yZXY3OS7uRIutaAOwyGi-261" value="Cross-Platform Support" style="text;html=1;align=center;verticalAlign=middle;whiteSpace=wrap;rounded=0;" vertex="1" parent="1">
          <mxGeometry x="460" y="1020" width="85" height="36" as="geometry" />
        </mxCell>
        <mxCell id="yZXY3OS7uRIutaAOwyGi-262" value="" style="endArrow=none;html=1;rounded=0;entryX=0.5;entryY=1;entryDx=0;entryDy=0;" edge="1" parent="1" target="yZXY3OS7uRIutaAOwyGi-261">
          <mxGeometry width="50" height="50" relative="1" as="geometry">
            <mxPoint x="466" y="1147" as="sourcePoint" />
            <mxPoint x="540" y="1040" as="targetPoint" />
          </mxGeometry>
        </mxCell>
        <mxCell id="yZXY3OS7uRIutaAOwyGi-263" value="Desktop Application" style="text;html=1;align=center;verticalAlign=middle;whiteSpace=wrap;rounded=0;fontStyle=0" vertex="1" parent="1">
          <mxGeometry x="511.25" y="1066" width="77.5" height="30" as="geometry" />
        </mxCell>
        <mxCell id="yZXY3OS7uRIutaAOwyGi-264" value="" style="endArrow=none;html=1;rounded=0;entryX=0;entryY=0.5;entryDx=0;entryDy=0;" edge="1" parent="1" target="yZXY3OS7uRIutaAOwyGi-263">
          <mxGeometry width="50" height="50" relative="1" as="geometry">
            <mxPoint x="494" y="1077" as="sourcePoint" />
            <mxPoint x="485" y="1100" as="targetPoint" />
          </mxGeometry>
        </mxCell>
        <mxCell id="yZXY3OS7uRIutaAOwyGi-265" value="Mobile Application" style="text;html=1;align=center;verticalAlign=middle;whiteSpace=wrap;rounded=0;fontStyle=0" vertex="1" parent="1">
          <mxGeometry x="405.87" y="1070" width="66.25" height="30" as="geometry" />
        </mxCell>
        <mxCell id="yZXY3OS7uRIutaAOwyGi-266" value="" style="endArrow=none;html=1;rounded=0;exitX=1;exitY=0.5;exitDx=0;exitDy=0;" edge="1" parent="1" source="yZXY3OS7uRIutaAOwyGi-265">
          <mxGeometry width="50" height="50" relative="1" as="geometry">
            <mxPoint x="510" y="1120" as="sourcePoint" />
            <mxPoint x="487" y="1094" as="targetPoint" />
          </mxGeometry>
        </mxCell>
        <mxCell id="yZXY3OS7uRIutaAOwyGi-267" value="Web Application" style="text;html=1;align=center;verticalAlign=middle;whiteSpace=wrap;rounded=0;fontStyle=0" vertex="1" parent="1">
          <mxGeometry x="500" y="1110" width="77.5" height="30" as="geometry" />
        </mxCell>
        <mxCell id="yZXY3OS7uRIutaAOwyGi-268" value="" style="endArrow=none;html=1;rounded=0;entryX=0;entryY=0.5;entryDx=0;entryDy=0;" edge="1" parent="1" target="yZXY3OS7uRIutaAOwyGi-267">
          <mxGeometry width="50" height="50" relative="1" as="geometry">
            <mxPoint x="479" y="1114" as="sourcePoint" />
            <mxPoint x="505" y="1129" as="targetPoint" />
          </mxGeometry>
        </mxCell>
        <mxCell id="yZXY3OS7uRIutaAOwyGi-269" value="Accessibility Features" style="text;html=1;align=center;verticalAlign=middle;whiteSpace=wrap;rounded=0;" vertex="1" parent="1">
          <mxGeometry x="651" y="1066" width="85" height="36" as="geometry" />
        </mxCell>
        <mxCell id="yZXY3OS7uRIutaAOwyGi-270" value="" style="endArrow=none;html=1;rounded=0;entryX=0.5;entryY=1;entryDx=0;entryDy=0;" edge="1" parent="1" target="yZXY3OS7uRIutaAOwyGi-269">
          <mxGeometry width="50" height="50" relative="1" as="geometry">
            <mxPoint x="635" y="1217" as="sourcePoint" />
            <mxPoint x="677" y="1150" as="targetPoint" />
          </mxGeometry>
        </mxCell>
        <mxCell id="yZXY3OS7uRIutaAOwyGi-271" value="Screen Reader Support" style="text;html=1;align=center;verticalAlign=middle;whiteSpace=wrap;rounded=0;fontStyle=0" vertex="1" parent="1">
          <mxGeometry x="583.75" y="1102" width="85" height="30" as="geometry" />
        </mxCell>
        <mxCell id="yZXY3OS7uRIutaAOwyGi-272" value="" style="endArrow=none;html=1;rounded=0;exitX=1;exitY=0.5;exitDx=0;exitDy=0;" edge="1" parent="1" source="yZXY3OS7uRIutaAOwyGi-271">
          <mxGeometry width="50" height="50" relative="1" as="geometry">
            <mxPoint x="620" y="1170" as="sourcePoint" />
            <mxPoint x="684" y="1120" as="targetPoint" />
          </mxGeometry>
        </mxCell>
        <mxCell id="yZXY3OS7uRIutaAOwyGi-273" value="Keyboard Navigation" style="text;html=1;align=center;verticalAlign=middle;whiteSpace=wrap;rounded=0;fontStyle=0" vertex="1" parent="1">
          <mxGeometry x="701" y="1140" width="65" height="30" as="geometry" />
        </mxCell>
        <mxCell id="yZXY3OS7uRIutaAOwyGi-274" value="" style="endArrow=none;html=1;rounded=0;entryX=0;entryY=0.5;entryDx=0;entryDy=0;" edge="1" parent="1" target="yZXY3OS7uRIutaAOwyGi-273">
          <mxGeometry width="50" height="50" relative="1" as="geometry">
            <mxPoint x="672" y="1145" as="sourcePoint" />
            <mxPoint x="705" y="1143" as="targetPoint" />
          </mxGeometry>
        </mxCell>
        <mxCell id="yZXY3OS7uRIutaAOwyGi-275" value="High Contrast Mode" style="text;html=1;align=center;verticalAlign=middle;whiteSpace=wrap;rounded=0;fontStyle=0" vertex="1" parent="1">
          <mxGeometry x="562.5" y="1150" width="80" height="30" as="geometry" />
        </mxCell>
        <mxCell id="yZXY3OS7uRIutaAOwyGi-276" value="" style="endArrow=none;html=1;rounded=0;exitX=1;exitY=0.5;exitDx=0;exitDy=0;" edge="1" parent="1" source="yZXY3OS7uRIutaAOwyGi-275">
          <mxGeometry width="50" height="50" relative="1" as="geometry">
            <mxPoint x="680" y="1180" as="sourcePoint" />
            <mxPoint x="656" y="1175" as="targetPoint" />
          </mxGeometry>
        </mxCell>
        <mxCell id="yZXY3OS7uRIutaAOwyGi-277" value="Accessibility Features" style="text;html=1;align=center;verticalAlign=middle;whiteSpace=wrap;rounded=0;" vertex="1" parent="1">
          <mxGeometry x="457.5" y="1260" width="85" height="36" as="geometry" />
        </mxCell>
        <mxCell id="yZXY3OS7uRIutaAOwyGi-278" value="" style="endArrow=none;html=1;rounded=0;exitX=0.5;exitY=0;exitDx=0;exitDy=0;" edge="1" parent="1" source="yZXY3OS7uRIutaAOwyGi-277">
          <mxGeometry width="50" height="50" relative="1" as="geometry">
            <mxPoint x="630" y="1365" as="sourcePoint" />
            <mxPoint x="545" y="1180" as="targetPoint" />
          </mxGeometry>
        </mxCell>
        <mxCell id="yZXY3OS7uRIutaAOwyGi-279" value="Multi-Language Support" style="text;html=1;align=center;verticalAlign=middle;whiteSpace=wrap;rounded=0;fontStyle=0" vertex="1" parent="1">
          <mxGeometry x="547.5" y="1217" width="85" height="30" as="geometry" />
        </mxCell>
        <mxCell id="yZXY3OS7uRIutaAOwyGi-280" value="" style="endArrow=none;html=1;rounded=0;exitX=0;exitY=0.5;exitDx=0;exitDy=0;" edge="1" parent="1" source="yZXY3OS7uRIutaAOwyGi-279">
          <mxGeometry width="50" height="50" relative="1" as="geometry">
            <mxPoint x="630" y="1260" as="sourcePoint" />
            <mxPoint x="527" y="1212" as="targetPoint" />
          </mxGeometry>
        </mxCell>
        <mxCell id="yZXY3OS7uRIutaAOwyGi-281" value="Channel Management" style="text;html=1;align=center;verticalAlign=middle;whiteSpace=wrap;rounded=0;" vertex="1" parent="1">
          <mxGeometry x="-182" y="150" width="80" height="30" as="geometry" />
        </mxCell>
        <mxCell id="yZXY3OS7uRIutaAOwyGi-282" value="" style="endArrow=none;html=1;rounded=0;entryX=0.5;entryY=1;entryDx=0;entryDy=0;" edge="1" parent="1" target="yZXY3OS7uRIutaAOwyGi-281">
          <mxGeometry width="50" height="50" relative="1" as="geometry">
            <mxPoint x="-110" y="329" as="sourcePoint" />
            <mxPoint x="-148" y="120" as="targetPoint" />
          </mxGeometry>
        </mxCell>
        <mxCell id="yZXY3OS7uRIutaAOwyGi-283" value="Save Server Configuration" style="text;html=1;align=center;verticalAlign=middle;whiteSpace=wrap;rounded=0;" vertex="1" parent="1">
          <mxGeometry x="-220" y="263" width="80" height="30" as="geometry" />
        </mxCell>
        <mxCell id="yZXY3OS7uRIutaAOwyGi-284" value="" style="endArrow=none;html=1;rounded=0;exitX=1;exitY=0.5;exitDx=0;exitDy=0;" edge="1" parent="1" source="yZXY3OS7uRIutaAOwyGi-283">
          <mxGeometry width="50" height="50" relative="1" as="geometry">
            <mxPoint x="-150" y="274" as="sourcePoint" />
            <mxPoint x="-123" y="271" as="targetPoint" />
          </mxGeometry>
        </mxCell>
        <mxCell id="yZXY3OS7uRIutaAOwyGi-285" value="Import Server Templates" style="text;html=1;align=center;verticalAlign=middle;whiteSpace=wrap;rounded=0;" vertex="1" parent="1">
          <mxGeometry x="-115" y="210" width="80" height="30" as="geometry" />
        </mxCell>
        <mxCell id="yZXY3OS7uRIutaAOwyGi-286" value="" style="endArrow=none;html=1;rounded=0;entryX=0;entryY=0.5;entryDx=0;entryDy=0;" edge="1" parent="1" target="yZXY3OS7uRIutaAOwyGi-285">
          <mxGeometry width="50" height="50" relative="1" as="geometry">
            <mxPoint x="-132" y="226" as="sourcePoint" />
            <mxPoint x="-84" y="260" as="targetPoint" />
          </mxGeometry>
        </mxCell>
        <mxCell id="yZXY3OS7uRIutaAOwyGi-287" value="Share Templates with Community" style="text;html=1;align=center;verticalAlign=middle;whiteSpace=wrap;rounded=0;" vertex="1" parent="1">
          <mxGeometry x="-252.5" y="190" width="95" height="30" as="geometry" />
        </mxCell>
        <mxCell id="yZXY3OS7uRIutaAOwyGi-288" value="" style="endArrow=none;html=1;rounded=0;exitX=1;exitY=0.5;exitDx=0;exitDy=0;" edge="1" parent="1" source="yZXY3OS7uRIutaAOwyGi-287">
          <mxGeometry width="50" height="50" relative="1" as="geometry">
            <mxPoint x="-120" y="225" as="sourcePoint" />
            <mxPoint x="-138" y="200" as="targetPoint" />
          </mxGeometry>
        </mxCell>
        <mxCell id="yZXY3OS7uRIutaAOwyGi-289" value="Add Friends" style="text;html=1;align=center;verticalAlign=middle;whiteSpace=wrap;rounded=0;" vertex="1" parent="1">
          <mxGeometry x="860" y="150" width="50" height="30" as="geometry" />
        </mxCell>
        <mxCell id="yZXY3OS7uRIutaAOwyGi-290" value="" style="endArrow=none;html=1;rounded=0;entryX=0;entryY=0.5;entryDx=0;entryDy=0;" edge="1" parent="1" target="yZXY3OS7uRIutaAOwyGi-289">
          <mxGeometry width="50" height="50" relative="1" as="geometry">
            <mxPoint x="763" y="135" as="sourcePoint" />
            <mxPoint x="913" y="191" as="targetPoint" />
          </mxGeometry>
        </mxCell>
        <mxCell id="yZXY3OS7uRIutaAOwyGi-291" value="Remove Friends" style="text;html=1;align=center;verticalAlign=middle;whiteSpace=wrap;rounded=0;" vertex="1" parent="1">
          <mxGeometry x="766" y="160" width="50" height="30" as="geometry" />
        </mxCell>
        <mxCell id="yZXY3OS7uRIutaAOwyGi-292" value="" style="endArrow=none;html=1;rounded=0;entryX=0.008;entryY=0.555;entryDx=0;entryDy=0;entryPerimeter=0;" edge="1" parent="1" target="yZXY3OS7uRIutaAOwyGi-291">
          <mxGeometry width="50" height="50" relative="1" as="geometry">
            <mxPoint x="733" y="172" as="sourcePoint" />
            <mxPoint x="757" y="190" as="targetPoint" />
          </mxGeometry>
        </mxCell>
      </root>
    </mxGraphModel>
  </diagram>
</mxfile>
